<?xml version="1.0" encoding="utf-8"?>
<!-- Generator: Adobe Illustrator 19.0.1, SVG Export Plug-In . SVG Version: 6.00 Build 0)  -->
<svg version="1.1" id="Layer_1" xmlns="http://www.w3.org/2000/svg" xmlns:xlink="http://www.w3.org/1999/xlink" x="0px" y="0px"
	 viewBox="0 0 642 430" style="enable-background:new 0 0 642 430;" xml:space="preserve">
<style type="text/css">
	.st0{fill:#89C5B9;}
</style>
<g>
	<path d="M-270.5-214.3c-0.6-13.7-6.4-41.5-40.3-41.5h-54.6v72.6h15.6c26.2,0,30.5-18,31.1-26.5v-4.6l7.9,7.6v79.6l-7.9-7.9v-0.6
		c-0.6-13.7-5.5-39.9-31.1-39.9h-15.6v117.4h54.6c35.4,0,45.1-48.2,47.3-68.3l8.8-8.5l-7.9,84.8h-175.6l7.6-7.9
		c16.5,0,19.5-4.3,20.1-6.4v-184.5c-0.6-2.1-3.7-7-20.1-7l-7.6-7.6h175.6v49.4l-7.9,7.6V-214.3z"/>
</g>
<rect x="-718" y="87.5" style="fill:none;" width="337" height="255"/>
<text transform="matrix(1 0 0 1 -694.1362 135.9497)"><tspan x="0" y="0" class="st0" style="font-family:'Leviathan-Regular'; font-size:57px; letter-spacing:11;">ABCDEF</tspan><tspan x="-21.1" y="68.4" class="st0" style="font-family:'Leviathan-Regular'; font-size:57px; letter-spacing:11;">GHI</tspan><tspan x="120.2" y="68.4" class="st0" style="font-family:'Leviathan-Regular'; font-size:57px; letter-spacing:11;">J</tspan><tspan x="156" y="68.4" class="st0" style="font-family:'Leviathan-Regular'; font-size:57px; letter-spacing:10;">K</tspan><tspan x="211.5" y="68.4" class="st0" style="font-family:'Leviathan-Regular'; font-size:57px; letter-spacing:11;">LM</tspan><tspan x="-23.5" y="136.8" class="st0" style="font-family:'Leviathan-Regular'; font-size:57px; letter-spacing:10;">N</tspan><tspan x="30.4" y="136.8" class="st0" style="font-family:'Leviathan-Regular'; font-size:57px; letter-spacing:11;">O</tspan><tspan x="82" y="136.8" class="st0" style="font-family:'Leviathan-Regular'; font-size:57px; letter-spacing:8;">P</tspan><tspan x="127.9" y="136.8" class="st0" style="font-family:'Leviathan-Regular'; font-size:57px; letter-spacing:11;">Q</tspan><tspan x="180.7" y="136.8" class="st0" style="font-family:'Leviathan-Regular'; font-size:57px; letter-spacing:9;">R</tspan><tspan x="231.7" y="136.8" class="st0" style="font-family:'Leviathan-Regular'; font-size:57px; letter-spacing:10;">S</tspan><tspan x="273.7" y="136.8" class="st0" style="font-family:'Leviathan-Regular'; font-size:57px; letter-spacing:11;">T</tspan><tspan x="-1.4" y="205.2" class="st0" style="font-family:'Leviathan-Regular'; font-size:57px; letter-spacing:8;">UVW</tspan><tspan x="156.9" y="205.2" class="st0" style="font-family:'Leviathan-Regular'; font-size:57px; letter-spacing:5;">X</tspan><tspan x="204.9" y="205.2" class="st0" style="font-family:'Leviathan-Regular'; font-size:57px; letter-spacing:10;">Y</tspan><tspan x="256.9" y="205.2" class="st0" style="font-family:'Leviathan-Regular'; font-size:57px; letter-spacing:11;">Z</tspan></text>
<g>
	<path class="st0" d="M108.1,2.9l1.1,3.3v0.1l2.2,6.7l0.1,0.1l17.7,53.8c0,0,0.8,2.6,4.8,2.6l2.5,2.5h-30.9l2.5-2.5
		c6.3,0,5.8-2.3,5.7-2.6L107.2,47H89.1l-6.8,19.8c-0.1,0.3-0.7,2.6,5.6,2.6l2.6,2.5H72.2l2.6-2.5c4,0,4.8-2.6,4.8-2.6l16.1-46.8
		l1.4-3.9l2-5.9l1-2.7l7.2-7.3l0.4,1.4L108.1,2.9z M106.3,44.6l-8-24.5L90,44.6H106.3z"/>
	<path class="st0" d="M196.8,2.8c0,0,18.2-0.7,18.2,14.2c0,0,0.8,9.8-9.8,13.1c7.3,2.1,16.3,7.2,16.3,20.2c0,0,2.4,21.5-25.7,21.5
		h-33.8l2.6-2.6c5.8,0,6.5-1.7,6.5-2.3V7.7c0-0.6-0.7-2.4-6.5-2.4l-2.5-2.5H196.8z M185.9,28.8h11c0,0,6.4,0.8,6.4-11.7
		c0,0,0.3-11.7-6.4-11.7h-11V28.8z M185.9,69.3h10c0,0,13.9,1.9,13.9-18.9c0,0,1.6-19-13.9-19h-10V69.3z"/>
	<path class="st0" d="M300.6,21.3v-1.5c-0.2-4.2-2.2-15.7-17.9-15.7h-0.6c-3,0-17.3,1.1-17.3,21.4v21c0.4,20.8,12.1,23.6,16.4,23.9
		c0.9,0.1,1.5,0.1,1.5,0.1c15.5,0,17.7-16.6,17.9-23.3v-0.3l2.6-2.5v28.7l-6.5-6.5c-5.9,7-13.9,6.5-13.9,6.5
		c-34.9,0-32.6-35.8-32.6-35.8s-2.6-35.8,32.6-35.8c0,0,9.1,0,15.2,5.2l2-2.1l0.7-0.7l2.6-2.5v17.2L300.6,21.3z"/>
	<path class="st0" d="M369.1,2.9c0,0,26.5-1.5,26.5,34.4c0,0,2.2,34.5-26.5,34.5h-38.3l2.5-2.5c5.8,0,6.4-1.8,6.5-2.4V7.8
		c0-0.6-0.7-2.4-6.5-2.4l-2.5-2.5H369.1z M354.4,69.4h14.7c0,0,14.7,1.4,14.7-32.1c0,0,0.1-1.3,0.1-3.3c0-8.2-1.4-28.7-14.8-28.7
		h-14.7V69.4z"/>
	<path class="st0" d="M477.5,18.8c-0.2-4.4-2.1-13.4-13-13.4h-17.7v23.5h5c8.5,0,9.9-5.8,10.1-8.6v-1.5l2.6,2.5V47l-2.6-2.6v-0.2
		c-0.2-4.4-1.8-12.9-10.1-12.9h-5v38h17.7c11.4,0,14.6-15.6,15.3-22.1l2.9-2.8l-2.6,27.4h-56.8l2.5-2.6c5.3,0,6.3-1.4,6.5-2.1V7.6
		c-0.2-0.7-1.2-2.3-6.5-2.3l-2.5-2.5h56.8v16l-2.6,2.5V18.8z"/>
	<path class="st0" d="M564.6,21.3c0,0,1.5-15.9-13.1-15.9h-17.6v23.5h5c8.5,0,9.9-5.8,10.1-8.6v-1.5l2.5,2.5V47l-2.5-2.6v-0.2
		c-0.3-4.4-1.8-12.9-10.1-12.9h-5v35.7c0,0.6,0.7,2.3,6.5,2.3l2.5,2.6h-32.7l2.6-2.6c5.6,0,6.4-1.6,6.5-2.3V7.7
		c-0.1-0.7-0.9-2.3-6.5-2.3l-2.6-2.6h56.8v16L564.6,21.3z"/>
	<path class="st0" d="M90.1,139.7v-1.5c-0.2-4.2-2.2-15.7-17.9-15.7h-0.6c-3,0-17.4,1.1-17.4,21.4v21c0.5,20.8,12.2,23.6,16.5,24
		h1.5c7,0,11.3-3.5,13.9-7.8v-9.3c-0.2-2.1-1.4-6.5-9.2-6.5l-2.6-2.6H100l2.6,2.6h-1.9c-2.9,0.2-8.1,1.3-8.2,7.3v18.9l-2.5-2.6
		l-3.9-3.9c-6,7-13.9,6.5-13.9,6.5c-34.9,0-32.6-35.8-32.6-35.8S37.1,120,72.2,120c0,0,9.1,0.1,15.2,5.2l2-2.1l3.2-3.2v17.3
		L90.1,139.7z"/>
	<path class="st0" d="M191.9,123.7c-5.7,0-6.4,1.8-6.5,2.4v59.4c0.1,0.6,0.8,2.3,6.5,2.3l2.5,2.6h-29.7l2.5-2.6
		c5.8,0,6.4-1.7,6.5-2.3v-35.7H150v35.5c0,0-0.5,2.5,6.5,2.5l2.5,2.6h-32.7l2.6-2.6c5.5,0,6.3-1.6,6.5-2.2V126
		c-0.2-0.6-1-2.3-6.5-2.3l-2.6-2.5h32.7l-2.5,2.5c-7,0-6.5,2.6-6.5,2.6v21h23.7v-21.2c-0.1-0.6-0.7-2.3-6.5-2.3l-2.5-2.6h29.7
		L191.9,123.7z"/>
	<path class="st0" d="M252.1,123.8c-5.6,0-6.4,1.7-6.4,2.3v59.4c0,0.6,0.8,2.3,6.4,2.3l2.6,2.6H222l2.5-2.6c5.6,0,6.4-1.6,6.5-2.3
		v-59.4c0-0.6-0.7-2.3-6.5-2.3l-2.5-2.6h32.7L252.1,123.8z"/>
	<path class="st0" d="M316.9,123.8c-5.7,0-6.4,1.7-6.5,2.3v55.8c0,0,1.2,20.2-21.8,20.2c-11.1,0-10.3-9.7-10.3-9.7
		c0-2.5,2.1-4.5,4.5-4.5c2.6,0,4.6,2.1,4.6,4.5c0,0,0.2,1.9-2,4.6c0,0-0.4,0.5-0.4,1.1c0,0.7,0.6,1.5,3.5,1.5
		c7.7,0,7.2-17.8,7.2-17.8v-55.8c-0.1-0.6-0.8-2.3-6.5-2.3l-2.5-2.6h32.7L316.9,123.8z"/>
	<path class="st0" d="M409.8,123.8c-6.5,0-9.8,2.5-9.8,2.5l-23.1,17.3l28.7,41.7c0.3,0.3,2,2.6,6.7,2.6l2.5,2.5h-30.7l2.6-2.5
		c4.1,0,5-1,5-1.7c0-0.4-0.2-0.7-0.3-0.8v-0.2L367.7,151v34.5c0.1,0.6,0.8,2.3,6.5,2.3l2.6,2.6h-32.7l2.5-2.6c5.7,0,6.4-1.7,6.5-2.3
		v-59.4c-0.1-0.6-0.8-2.4-6.5-2.4l-2.5-2.5h32.7l-2.6,2.5c-5.7,0-6.4,1.8-6.5,2.4v21.2l28-21c0.1,0,0.9-0.6,0.9-1.3
		c0-0.6-0.8-1.2-3.9-1.2l-2.6-2.6h22.1L409.8,123.8z"/>
	<path class="st0" d="M470.4,123.8c-5.7,0-6.4,1.7-6.5,2.3v61.7h17.7c11.5,0,14.6-15.6,15.4-22.1l2.8-2.8l-2.6,27.4h-56.8l2.5-2.5
		c5.7,0,6.5-1.8,6.5-2.4v-59.4c0-0.6-0.8-2.3-6.5-2.3l-2.5-2.6h32.7L470.4,123.8z"/>
	<path class="st0" d="M601.1,123.7c-5.8,0-6.5,1.8-6.5,2.4v59.4c0,0.6,0.7,2.3,6.5,2.3l2.5,2.6h-32.7l2.5-2.6c5.8,0,6.5-1.7,6.5-2.3
		v-55.7l-17.5,56.7l-3.8,3.8l3.1-10l-3.1,9.7l-19.8-65.4v60.9c0.1,0.7,0.8,2.3,6.4,2.3l2.6,2.6h-20.5l2.5-2.6c5.7,0,6.4-1.7,6.5-2.3
		v-59.4c-0.1-0.6-0.8-2.4-6.5-2.4l-2.5-2.5h22.8v0.1l14.8,48.7l15-48.8h23.7L601.1,123.7z"/>
	<path class="st0" d="M103,242.1c-5.7,0-6.5,1.7-6.5,2.3v64.4h-5.3L83.9,297l-34-54.2v61.1c0,0.6,0.8,2.3,6.4,2.3l2.6,2.6H38.4
		l2.5-2.6c5.7,0,6.4-1.7,6.5-2.3v-59.5c-0.1-0.6-0.8-2.3-6.5-2.3l-2.5-2.5h26.7l0.1,0.1L94,285.6v-41.2c-0.1-0.6-0.8-2.3-6.5-2.3
		l-2.5-2.5h20.5L103,242.1z"/>
	<path class="st0" d="M193.4,274.2c0,0,2.3,35.8-30.8,35.8s-30.8-35.8-30.8-35.8s-2.5-35.8,30.8-35.8
		C195.8,238.4,193.4,274.2,193.4,274.2z M159.6,241.1c-4.8,0.9-13.9,4.6-13.9,21.3v20.9c0.4,20.8,11.5,23.7,15.6,24h1.4h1.4
		c4-0.3,15.2-3.2,15.6-24v-20.9c0-16.7-9.1-20.4-13.9-21.3c-1.9-0.2-3.1-0.2-3.1-0.2S161.4,240.9,159.6,241.1z"/>
	<path class="st0" d="M251.7,239.7c23.4,0,21.5,17.1,21.5,17.1s0,17.1-21.5,17.1h-11v30.1c0.1,0.6,0.8,2.3,6.5,2.3l2.5,2.6h-32.7
		l2.6-2.6c5.7,0,6.4-1.7,6.5-2.3v-59.4c-0.1-0.6-0.7-2.3-6.5-2.3l-2.6-2.6H251.7z M240.8,271.2h11c10,0,9.8-14.5,9.8-14.5
		s0.2-14.5-9.8-14.5h-11V271.2z"/>
	<path class="st0" d="M358.4,274.3c0,0,1.9,30-23.6,34.2c1.4,6.5,6.6,9.5,11.5,10.9l2.1,2.1c-1.6,0.1-3,0.2-4.2,0.2
		c-7.1,0-10.8-1.4-10.8-1.4c-9.1-3.2-10.8-9-11-11.7c-25.8-4-23.8-34.2-23.8-34.2s-2.4-34.7,29.8-34.7
		C360.8,239.6,358.4,274.3,358.4,274.3z M325.6,242.2c-4.6,0.8-13.4,4.5-13.4,20.6v20.3c0.4,20.2,11.2,22.9,15.1,23.3h1.3h1.4
		c3.8-0.4,14.7-3.1,15.1-23.3v-20.3c0-16.1-8.8-19.8-13.5-20.6c-1.7-0.2-3-0.2-3-0.2S327.3,242,325.6,242.2z"/>
	<path class="st0" d="M416.6,239.7c0,0,18.3-0.7,18.3,14.3c0,0,0.9,11.6-13.1,13.9c14.4,5.4,13.1,19.3,13.1,19.3s-0.1,0.9-0.1,2.3
		c0,5,1,16.8,9.4,16.8l2.6,2.6c-2.6,0.8-4.8,1.2-6.8,1.3h-0.9c-17.5,0-15.9-22.9-15.9-22.9s1.1-18.9-15-18.9h-2.5V304
		c0,0.6,0.8,2.3,6.5,2.3l2.5,2.6H382l2.5-2.6c5.8,0,6.5-1.7,6.5-2.3v-59.4c0-0.6-0.7-2.4-6.5-2.4l-2.5-2.6H416.6z M405.7,265.7h11
		c0,0,6.5,0.7,6.5-11.7c0,0,0.3-11.7-6.5-11.7h-11V265.7z"/>
	<path class="st0" d="M510.6,258.1v-1.6c-0.2-4.1-2.2-15.6-17.9-15.6c-16,0.4-16,11.3-16,11.3c0,12,17.1,11.5,17.1,11.5
		c24.8,0,23.6,22.3,23.6,22.3c0,18.3-11.7,22.6-18.8,23.6h-0.1c-0.7,0.1-1.4,0.2-2,0.2c-1.3,0.1-3.1,0.2-4.8,0.2
		c-0.4,0-1.7,0-3.4-0.4c-1.4-0.2-2.7-0.6-3.8-1.2c-2.2-0.9-4.5-2.5-6.7-4.9l-3.9,3.9l-2.6,2.5v-28.6l2.6,2.5v0.3
		c0.2,5.5,1.7,17.7,10.9,21.8c1.2,0.5,3.4,1.2,6.5,1.4h0.5v0.1h2.4c16.8-0.2,16.9-14.2,16.9-14.2c0-16-17.3-14.2-17.3-14.2
		c-19.9,0-23.4-11.4-23.4-19.4c0-4.1,1-7.3,1-7.3c3.7-12.7,17.4-13.8,21.3-13.8h0.1h1c2.6,0.2,9.3,1.1,14.1,5.2l2-2.1l3.2-3.2v17.2
		L510.6,258.1z"/>
	<path class="st0" d="M600.3,258.1c0,0,1.5-16-13-16h-7v61.8c0.1,0.6,0.8,2.3,6.5,2.3l2.5,2.6h-32.6l2.5-2.6c5.3,0,6.3-1.4,6.5-2.1
		v-62h-7c-14.5,0-13.1,16-13.1,16l-2.5-2.5v-16h59.8v16L600.3,258.1z"/>
	<path class="st0" d="M137.3,360.7c-5.6,0-6.4,1.7-6.5,2.3v47.7c0,17.1-18.9,17.9-18.9,17.9s-31,1.8-31-17.9v-47.7
		c-0.1-0.6-0.8-2.3-6.5-2.3l-2.6-2.6h32.7l-2.5,2.6c-5.7,0-6.4,1.7-6.5,2.3v47.7c0,0-1.2,15.4,16.4,15.4c16.1,0,16.4-15.4,16.4-15.4
		v-47.7c-0.1-0.7-0.9-2.3-6.5-2.3l-2.5-2.6h20.5L137.3,360.7z"/>
	<path class="st0" d="M220.2,360.7c-3.9,0-4.8,2.6-4.8,2.6L199.2,410l-1.4,3.9l-2.9,8.6l-7.3,7.2l-0.4-1.3l-0.5-1.3l-1.1-3.3v-0.1
		l-2.2-6.7l-0.1-0.1l-17.7-53.8c0,0-0.8-2.6-4.8-2.6l-2.5-2.6h30.9l-2.5,2.6c-6.3,0-5.8,2.3-5.7,2.6l15.4,46.8l16.1-46.8
		c0.1-0.3,0.7-2.6-5.6-2.6l-2.5-2.6h18.2L220.2,360.7z"/>
	<path class="st0" d="M301.8,358.1l-2.6,2.5c-4,0-4.8,2.6-4.8,2.6l-5.4,15.7l11.1,34l17-49.6c0.1-0.3,0.7-2.6-5.5-2.6l-2.6-2.5h18.2
		l-2.5,2.5c-4,0-4.9,2.6-4.9,2.6l-3.1,8.9l-16,46.8l-1.8,4.9l-5.7,5.8l-10.5-32.3l-4.3,12.6l-1.4,3.9l-2.9,8.6l-7.3,7.2l-0.4-1.3
		l-0.5-1.3l-1.1-3.3v-0.1l-2.2-6.7l-0.1-0.1l-17.7-53.8c0,0-0.8-2.6-4.8-2.6l-2.5-2.5h32.4V358h12.3v0.1H301.8z M266,360.6
		c-6.2,0-5.8,2.3-5.7,2.6l15.4,46.8l5.7-16.6l-10.7-32.8H266z M287.7,374.9l4-11.7c0.1-0.3,0.7-2.6-5.6-2.6H283L287.7,374.9z"/>
	<path class="st0" d="M403.3,360.7c-4.7,0-6.3,2.6-6.3,2.6l-14,22.3l19.9,36.7c1.3,2.1,4.1,2.4,5.3,2.4h0.5l2.5,2.6h-32.7l2.5-2.6
		c6.9,0,5.1-2.6,5.1-2.6l-12-22.2l-13.9,22.3V422c0,0-0.2,0.3-0.2,0.8c0,0.7,0.7,1.8,5,1.8l2.6,2.6h-19.2l2.6-2.6
		c4,0,5.8-1.9,6.2-2.4l15.6-25l-18.5-34c-1.2-2.3-4.2-2.6-5.4-2.6h-0.5l-2.6-2.6h32.8l-2.6,2.6c-5.8,0-5.4,1.8-5.1,2.4l10.8,19.9
		l12.4-19.8c0.3-0.5,1.1-2.5-4.8-2.5l-2.6-2.6h19.2L403.3,360.7z"/>
	<path class="st0" d="M490.7,360.7c-4.3,0-5.7,2.2-5.9,2.5v0.1l-15.6,27.9v31.2c0.1,0.6,0.9,2.3,6.5,2.3l2.6,2.6h-32.7l2.5-2.6
		c5.6,0,6.4-1.6,6.5-2.3v-27.5l-17.2-31.6c-1.2-2.3-4.2-2.6-5.4-2.6h-0.5l-2.5-2.6h32.7l-2.5,2.6c-5.7,0-5.5,1.7-5.2,2.4l13.8,25.5
		l14.1-25.4c0.2-0.5,0.9-2.5-5.1-2.5l-2.5-2.6h18.9L490.7,360.7z"/>
	<path class="st0" d="M554.8,424.6c11.5,0,14.6-15.6,15.4-22.1l2.8-2.8l-2.5,27.4h-55.6l40-66.5h-17.7c-14.5,0-13,15.9-13,15.9
		l-2.6-2.5v-16h51.8l-40,66.5H554.8z"/>
</g>
</svg>
