<?xml version="1.0" encoding="utf-8"?>
<!-- Generator: Adobe Illustrator 19.0.1, SVG Export Plug-In . SVG Version: 6.00 Build 0)  -->
<svg version="1.1" id="Layer_1" xmlns="http://www.w3.org/2000/svg" xmlns:xlink="http://www.w3.org/1999/xlink" x="0px" y="0px"
	 viewBox="0 0 474 299.7" style="enable-background:new 0 0 474 299.7;" xml:space="preserve">
<style type="text/css">
	.st0{fill:none;stroke:#BCBCBC;stroke-miterlimit:10;}
	.st1{fill:none;stroke:#BCBCBC;stroke-miterlimit:10;stroke-dasharray:6,6;}
	.st2{fill:none;stroke:#BCBCBC;stroke-miterlimit:10;stroke-dasharray:6;}
	.st3{fill:#89C5B9;}
</style>
<g>
	<line class="st0" x1="0" y1="0.5" x2="474" y2="0.5"/>
	<line class="st0" x1="0" y1="5.5" x2="474" y2="5.5"/>
	<g>
		<g>
			<line class="st0" x1="0" y1="45.5" x2="3" y2="45.5"/>
			<line class="st1" x1="9" y1="45.5" x2="468" y2="45.5"/>
			<line class="st0" x1="471" y1="45.5" x2="474" y2="45.5"/>
		</g>
	</g>
	<line class="st2" x1="0" y1="113.5" x2="474" y2="113.5"/>
	<g>
		<path class="st3" d="M142.5,5.1l1.7,5.1v0.2l3.4,10.6l0.2,0.2l27.8,84.6c0,0,1.2,4,7.6,4l3.9,3.9h-48.6l3.9-3.9c9.9,0,9.2-3.6,9-4
			l-10.2-31.2h-28.6l-10.7,31.2c-0.2,0.5-1.1,4,8.8,4l4,3.9H86l4-3.9c6.4,0,7.6-4,7.6-4l25.3-73.6l2.2-6.2l3.1-9.3l1.6-4.2
			l11.3-11.5l0.6,2.2L142.5,5.1z M139.7,70.6l-12.6-38.5l-13.2,38.5H139.7z"/>
		<path class="st3" d="M251,5c0,0,28.6-1.1,28.6,22.4c0,0,1.2,15.4-15.4,20.6c11.5,3.3,25.6,11.3,25.6,31.8c0,0,3.7,33.8-40.4,33.8
			h-53.1l4-4c9.2,0,10.2-2.6,10.2-3.6V12.6c0-0.9-1.1-3.7-10.2-3.7L196.5,5H251z M233.7,45.8H251c0,0,10.1,1.2,10.1-18.5
			c0,0,0.5-18.5-10.1-18.5h-17.2V45.8z M233.7,109.6h15.7c0,0,21.9,2.9,21.9-29.8c0,0,2.5-30-21.9-30h-15.7V109.6z"/>
		<path class="st3" d="M384,34v-2.3C383.7,25,380.6,7,355.9,7H355c-4.7,0-27.2,1.7-27.2,33.7v33.1c0.6,32.8,19.1,37.1,25.8,37.6
			c1.4,0.2,2.3,0.2,2.3,0.2c24.4,0,27.8-26.1,28.1-36.6v-0.5l4-3.9v45.2l-10.2-10.2c-9.3,11-21.9,10.2-21.9,10.2
			c-54.9,0-51.2-56.3-51.2-56.3s-4-56.3,51.2-56.3c0,0,14.3,0,23.9,8.2l3.1-3.3l1.1-1.1l4-3.9v27L384,34z"/>
	</g>
</g>
<g>
	<line class="st0" x1="0" y1="297.5" x2="474" y2="297.5"/>
	<line class="st0" x1="0" y1="166.5" x2="474" y2="166.5"/>
	<line class="st0" x1="0" y1="171.5" x2="474" y2="171.5"/>
	<g>
		<g>
			<line class="st0" x1="0" y1="211.5" x2="3" y2="211.5"/>
			<line class="st1" x1="9" y1="211.5" x2="468" y2="211.5"/>
			<line class="st0" x1="471" y1="211.5" x2="474" y2="211.5"/>
		</g>
	</g>
	<line class="st2" x1="0" y1="279.5" x2="474" y2="279.5"/>
	<g>
		<path class="st3" d="M156.4,174.7c-9,0-10.1,2.6-10.2,3.6V266c0,0,1.9,31.8-34.3,31.8c-17.4,0-16.1-15.2-16.1-15.2
			c0-3.9,3.3-7.1,7.1-7.1c4,0,7.3,3.3,7.3,7.1c0,0,0.3,2.9-3.1,7.3c0,0-0.6,0.8-0.6,1.7c0,1.1,0.9,2.3,5.4,2.3
			c12.1,0,11.3-27.9,11.3-27.9v-87.7c-0.2-0.9-1.2-3.6-10.2-3.6l-3.9-4h51.4L156.4,174.7z"/>
		<path class="st3" d="M230.4,170.7c36.8,0,33.8,26.9,33.8,26.9s0,26.9-33.8,26.9h-17.2v47.3c0.2,0.9,1.2,3.6,10.2,3.6l3.9,4h-51.4
			l4-4c9,0,10.1-2.6,10.2-3.6v-93.4c-0.2-0.9-1.1-3.6-10.2-3.6l-4-4H230.4z M213.2,220.4h17.2c15.7,0,15.4-22.8,15.4-22.8
			s0.3-22.8-15.4-22.8h-17.2V220.4z"/>
		<path class="st3" d="M370.7,225.2c0,0,2.9,47.2-37.1,53.9c2.2,10.2,10.4,14.9,18.2,17.1l3.3,3.3c-2.5,0.2-4.7,0.3-6.7,0.3
			c-11.2,0-16.9-2.2-16.9-2.2c-14.3-5-16.9-14.1-17.2-18.5c-40.5-6.4-37.4-53.9-37.4-53.9s-3.7-54.6,46.9-54.6
			C374.5,170.6,370.7,225.2,370.7,225.2z M319,174.7c-7.3,1.2-21.1,7.1-21.1,32.4v32c0.6,31.8,17.5,36,23.7,36.6h2h2.2
			c6.1-0.6,23.1-4.8,23.7-36.6v-32c0-25.3-13.8-31.2-21.3-32.4c-2.6-0.3-4.7-0.3-4.7-0.3S321.8,174.4,319,174.7z"/>
	</g>
</g>
<g>
	<text transform="matrix(1 0 0 1 661.7188 512.3424)"><tspan x="0" y="0" class="st3" style="font-family:'Leviathan-Regular'; font-size:44.2766px;">H</tspan><tspan x="33.2" y="0" class="st3" style="font-family:'Leviathan-Regular'; font-size:44.2766px;">AR</tspan><tspan x="95.9" y="0" class="st3" style="font-family:'Leviathan-Regular'; font-size:44.2766px;">P</tspan><tspan x="124.2" y="0" class="st3" style="font-family:'Leviathan-Regular'; font-size:44.2766px; letter-spacing:1;">O</tspan><tspan x="156.8" y="0" class="st3" style="font-family:'Leviathan-Regular'; font-size:44.2766px; letter-spacing:-1;">O</tspan><tspan x="186.7" y="0" class="st3" style="font-family:'Leviathan-Regular'; font-size:44.2766px;">N</tspan></text>
	<text transform="matrix(1 0 0 1 908.0259 512.3424)"><tspan x="0" y="0" class="st3" style="font-family:'Leviathan-Regular'; font-size:44.2766px;">F</tspan><tspan x="29.5" y="0" class="st3" style="font-family:'Leviathan-Regular'; font-size:44.2766px; letter-spacing:3;">I</tspan><tspan x="50.8" y="0" class="st3" style="font-family:'Leviathan-Regular'; font-size:44.2766px; letter-spacing:1;">S</tspan><tspan x="77.2" y="0" class="st3" style="font-family:'Leviathan-Regular'; font-size:44.2766px;">H</tspan></text>
	<g>
		<path class="st3" d="M720,528.1l-2.3,2.2c-3.7,0-4.4,2.3-4.4,2.3l-4.9,14.2l10,30.8l15.4-45c0.1-0.3,0.6-2.3-5-2.3l-2.3-2.2h16.5
			l-2.2,2.2c-3.7,0-4.5,2.3-4.5,2.3l-2.8,8.1l-14.5,42.4l-1.6,4.5l-5.2,5.3l-9.5-29.3l-3.9,11.5l-1.3,3.6l-2.6,7.8l-6.6,6.5
			l-0.4-1.2l-0.4-1.2l-1-3v-0.1l-2-6.1l-0.1-0.1l-16-48.8c0,0-0.7-2.3-4.4-2.3l-2.2-2.2h29.3V528h11.2v0.1H720z M687.5,530.3
			c-5.6,0-5.3,2.1-5.2,2.3l14,42.4l5.2-15l-9.7-29.7H687.5z M707.2,543.3l3.7-10.6c0.1-0.3,0.6-2.3-5.1-2.3H703L707.2,543.3z"/>
		<path class="st3" d="M763.8,528.2l1,3v0.1l2,6.1l0.1,0.1l16,48.8c0,0,0.7,2.3,4.4,2.3l2.2,2.2h-28l2.2-2.2c5.7,0,5.3-2.1,5.2-2.3
			l-5.9-18h-16.5l-6.2,18c-0.1,0.3-0.6,2.3,5.1,2.3l2.3,2.2h-16.6l2.3-2.2c3.7,0,4.4-2.3,4.4-2.3l14.6-42.4l1.3-3.6l1.8-5.4l0.9-2.4
			l6.5-6.6l0.4,1.3L763.8,528.2z M762.2,565.9l-7.2-22.2l-7.6,22.2H762.2z"/>
		<path class="st3" d="M839.6,544.8c0,0,1.3-14.5-11.8-14.5h-6.4v56c0.1,0.5,0.7,2.1,5.9,2.1l2.2,2.3H800l2.2-2.3
			c4.8,0,5.7-1.3,5.9-1.9v-56.2h-6.4c-13.2,0-11.9,14.5-11.9,14.5l-2.2-2.2v-14.5h54.2v14.5L839.6,544.8z"/>
		<path class="st3" d="M898.3,542.6c-0.2-4-1.9-12.2-11.8-12.2h-16v21.3h4.6c7.7,0,8.9-5.3,9.1-7.8v-1.3l2.3,2.2v23.4l-2.3-2.3v-0.2
			c-0.2-4-1.6-11.7-9.1-11.7h-4.6v34.4h16c10.4,0,13.2-14.1,13.9-20l2.6-2.5l-2.3,24.9h-51.5l2.2-2.3c4.8,0,5.7-1.3,5.9-1.9v-54.1
			c-0.2-0.6-1.1-2.1-5.9-2.1l-2.2-2.2h51.5v14.5l-2.3,2.2V542.6z"/>
		<path class="st3" d="M941.5,528.1c0,0,16.6-0.6,16.6,13c0,0,0.8,10.6-11.9,12.6c13.1,4.9,11.9,17.5,11.9,17.5s-0.1,0.8-0.1,2.1
			c0,4.6,0.9,15.2,8.5,15.2l2.3,2.3c-2.3,0.7-4.4,1.1-6.2,1.2h-0.8c-15.8,0-14.4-20.8-14.4-20.8s1-17.2-13.6-17.2h-2.2v32.4
			c0,0.5,0.7,2.1,5.9,2.1l2.2,2.3h-29.6l2.2-2.3c5.3,0,5.9-1.5,5.9-2.1v-53.9c0-0.5-0.6-2.1-5.9-2.1l-2.2-2.3H941.5z M931.6,551.7
			h9.9c0,0,5.9,0.6,5.9-10.6c0,0,0.3-10.6-5.9-10.6h-9.9V551.7z"/>
		<path class="st3" d="M1011.5,544.8v-1.4c-0.2-3.8-2-14.1-16.2-14.1c-14.5,0.4-14.5,10.2-14.5,10.2c0,10.9,15.5,10.5,15.5,10.5
			c22.5,0,21.4,20.2,21.4,20.2c0,16.6-10.6,20.5-17,21.4h-0.1c-0.6,0.1-1.3,0.2-1.8,0.2c-1.2,0.1-2.8,0.2-4.4,0.2
			c-0.4,0-1.5,0-3-0.4c-1.3-0.2-2.4-0.5-3.4-1.1c-2-0.8-4.1-2.2-6.1-4.5l-3.6,3.6l-2.3,2.2v-25.9l2.3,2.2v0.3c0.2,5,1.5,16,9.8,19.8
			c1.1,0.4,3,1.1,5.9,1.3h0.4v0.1h2.1c15.2-0.2,15.3-12.9,15.3-12.9c0-14.5-15.7-12.9-15.7-12.9c-18.1,0-21.2-10.4-21.2-17.6
			c0-3.8,0.9-6.6,0.9-6.6c3.3-11.5,15.7-12.5,19.3-12.5h0.1h0.9c2.3,0.2,8.4,1,12.8,4.7l1.8-1.9l2.9-2.9v15.6L1011.5,544.8z"/>
	</g>
</g>
</svg>
