<?xml version="1.0" encoding="utf-8"?>
<!-- Generator: Adobe Illustrator 19.0.1, SVG Export Plug-In . SVG Version: 6.00 Build 0)  -->
<svg version="1.1" id="Layer_1" xmlns="http://www.w3.org/2000/svg" xmlns:xlink="http://www.w3.org/1999/xlink" x="0px" y="0px"
	 viewBox="0 0 474 588" style="enable-background:new 0 0 474 588;" xml:space="preserve">
<style type="text/css">
	.st0{fill:#50A997;}
</style>
<g>
	<path class="st0" d="M41.6,48.8c-4.4,0.5-5.2,1-5.4,3.1c-0.2,2.9-0.5,7.8-0.5,21v15.2c0,7.3-0.1,25.9-0.1,35.6
		c0,4.4-0.8,7.2-2.3,9.8c-3.7,6.7-11.7,12-17.7,15c-1.7,0.8-4.1,1.4-5.9,1.4c-3.4,0-6.7-1.7-8.5-3.2c-0.8-0.8-1.2-1.6-1.2-2.4
		c0-0.7,0.2-1.6,0.6-2c1.7-1.9,2.8-2.6,4-3.6c0.6-0.5,1.4-0.5,2.3,0.1c2.2,1.3,5.5,3.1,9.6,3.1c2.3,0,4.2-0.8,5.8-2.4
		c1.9-1.7,2.9-4.3,3-10.2c0.4-8.7,0.5-18.5,0.5-26.6V78.4c0-12.3-0.1-18.5-0.2-21.6c-0.5-7.2-1-7.4-10.2-8.1c0-0.4,0.5-2.3,0.7-3
		c0.2-0.7,1-0.8,1.7-0.8c2.2,0,7.7,0.1,11.3,0.1c4.9,0,11.3-0.5,14.6-0.5c0.6,0,0.7,0.1,0.8,0.6l0.7,3.2L41.6,48.8z"/>
	<path class="st0" d="M81.4,81.1c5.4,0,9.5-0.1,12.5-0.4c7.2-0.5,7.8-1,9.2-8c0.6-0.4,3.4-0.6,4-0.5c-0.2,3.5-1,9-1,12.7
		c0.1,4.1,0.5,7.4,0.8,10.9c-1,0.2-1.9,0.4-2.8,0.4c-0.6,0.1-1-0.2-1.1-0.7c-0.6-1.3-1.1-3.2-1.4-4.7c-0.7-3.2-2.2-4.3-6.9-4.7
		c-2.6-0.2-6.6-0.2-12.7-0.2c-6,0-7.2,0.1-7.9,0.2c-0.5,0.1-0.8,0.2-1.2,0.7c-0.4,0.7-1.1,4.9-1.1,14.7c0,8.7,0,12,1.2,13.9
		c1.7,2.3,5.8,2.9,15.7,2.9c14,0,20.7-1.3,24.4-14c0.5-0.1,1.7,0,2.9,0.2c0.4,0.1,0.4,0.2,0.4,0.8c-0.2,5.5-2.2,13.2-3.7,16.7
		c-0.6,0.7-1,1-1.6,1c-0.8,0-1.7,0-5.6-0.1c-3.6-0.1-12-0.2-21.9-0.2c-9.6,0-19.1,0.5-28.6,0.8c-0.2-0.1-0.4-2.6-0.2-3.6
		c0-0.2,0.4-0.5,0.5-0.6c5.5-1,6-1.7,6.1-3.5c0.2-1.8,0.8-9.6,0.8-21.8V73.4c0-15.9-0.7-21.2-0.8-21.9c-0.1-0.7-0.4-1.3-1.6-1.6
		c-1.2-0.6-3.5-0.8-6.4-1.6c-0.1-0.1-0.1-0.1-0.1-0.5l0.2-2.9c0-0.4,0-0.5,0.6-0.5h4.2c3.7,0,8.3,0.2,15.6,0.2h11.6
		c7.3,0,16.1-0.6,22-0.6c1.6,0,2.3,0.2,2.9,0.6c1.1,0.7,1.1,0.6,0.6,2.9c-1,5.3-1.1,12.2-1.1,15.3c-3.1,0-3.6-0.4-3.7-1.1
		c-1.7-8.6-2.5-12.9-11.9-12.9H86c-7.1,0-11,0.2-12.3,0.6c-1.6,0.5-1.8,1.7-1.8,4.4c0,8.4,0.1,16.8,0.2,25.2c0,1.1,0.7,1.9,1.6,1.9
		H81.4z"/>
	<path class="st0" d="M123.7,44.4c5.5,0.2,8.1,0.5,16.7,0.5c0.7,0,1.3,0.1,1.7,0.4c0.4,0.4,1,1.3,1.3,2.2c0.8,1.6,5,6.9,7.9,9.7
		c7.3,7.3,24.7,24.7,48.6,47.2c0-3.8,0.1-14.6,0.1-23.5c0-12.5-0.1-18.9-0.6-25c-0.1-2-0.5-5-3.1-5.9c-1.2-0.5-4.6-0.8-7.1-1.1
		c-0.2-0.1-0.6-0.2-0.6-0.6l-0.1-3.4h13.4c4.7,0,9.5-0.4,13.2-0.4c0.6,0,1,0.2,1.1,0.6l0.7,2.5c-4.3,1-6,1.4-7.9,2.6
		c-2.3,1.2-3,5-3.6,21.3c-0.2,10.9-0.4,18.6-0.4,34.6c0,7.7,0.4,14.7,0.4,16.8c-0.1,0.6-0.8,1.2-2.4,1.9c-0.6,0.1-1.1,0.1-1.7-0.6
		c-7.1-10.4-18.2-21.7-30.8-34.1c-9.9-9.9-19.4-19.2-29.2-29.1c-0.4,6.7-0.6,15.3-0.6,22c0,10.8,0,27,1.6,31.5
		c0.8,2.8,4.6,3.7,9.5,4.7l0.8,2.9c0.1,0.4-0.6,1-1,1c-5,0-10.3-0.5-15.2-0.5c-4.2,0-7.8,0.4-9.8,0.4l-1-3.5c7.5-1.9,8-3.1,8.6-7.1
		c0.4-3,1.4-14,1.4-30.9V68.3c0-12.5-0.2-14.4-2.2-16.3c-1.9-2-3.8-3.1-8.9-3.6c-0.7-0.2-1-0.4-1-0.8V44.4z"/>
	<path class="st0" d="M226.5,124.7c-0.5-0.8-0.7-2.3-0.8-4.3c-0.2-6.1-1.1-12-1.9-17.7c-0.4-0.8-0.2-1.1,0.4-1.2
		c0.7-0.1,1.9-0.4,2.6-0.4c0.6,0,0.8,0.2,1.2,1.4c0.5,1.8,1.3,4.8,3.5,7.7c3.8,5.6,11.9,10.3,19.8,10.3c10.7,0,18.1-6.9,18.1-16.8
		c0-4.2-2-7.7-5.4-10.1c-2.4-1.9-5.5-3.6-15-7.2c-8.3-3.1-14.1-5.9-18-10.3c-2.4-2.8-4.4-7.9-4.4-12.1c0-8.6,4.3-14,10.1-17.1
		c2.9-1.7,9.8-4.1,17.6-4.1c3.4,0,9.3,0.6,11.5,1c1.6,0.4,2.6,0.4,3.4,0.4c0.8,0,1.9-1,2.9-2.4c1.2-0.1,2.8,0,3,0.1
		c-0.4,6.6,0,12.5,1,18.8c0.2,0.7,0,1.2-0.4,1.4c-0.4,0.4-1.8,1.1-2.8,1.3c-0.4,0.1-0.5-0.1-0.7-0.6c-1.3-4.3-2.3-8.4-5.8-11.1
		c-2.4-2.5-8.5-4.6-14.5-4.6c-9.1,0-15,5.9-15,13.8c0,3.8,1.6,6.8,3.2,8.7c3,3,6.4,5,15.3,8.3c8.5,3.1,14.3,6,18,9.3
		c4.8,4.3,6.3,8.9,6.3,14.6c0,8.6-4.4,15.1-10.5,18.5c-5.4,2.9-15.9,4.3-19.9,4.3c-5.3,0-10.4-1-15.5-1.8c-1-0.2-1.6-0.1-2.2,0.2
		c-0.7,0.4-1.6,1-2.4,1.6c-0.7,0.6-1.1,0.7-1.6,0.7C227.3,125.4,226.9,125.3,226.5,124.7z"/>
	<path class="st0" d="M373.5,81.9c0,14.9-7.2,25.8-13.5,32c-8.3,8.1-19.1,10.9-25.5,10.9c-12.7,0-26.5-5.8-34.6-14.9
		c-6.1-6.7-10.1-17.4-10.1-27.2c0-10.1,4.1-20.7,13.4-29.1c7.5-6.8,18.3-10.9,28.8-10.9C353.7,42.8,373.5,60,373.5,81.9z
		 M310.2,55.8c-6.4,7.3-8.1,18.2-8.1,25.8c0,11.1,4,20.8,10.5,27.6c7.9,8,15.5,11,23.5,11c12.3,0,25.5-10.7,25.5-33.1
		c0-10.8-2.9-21.4-11.1-30.4c-4.8-5.2-12.3-9.6-22.3-9.6C322.3,47.1,316.3,49.2,310.2,55.8z"/>
	<path class="st0" d="M380.8,44.4c5.5,0.2,8.1,0.5,16.7,0.5c0.7,0,1.3,0.1,1.7,0.4c0.4,0.4,1,1.3,1.3,2.2c0.8,1.6,5,6.9,7.9,9.7
		c7.3,7.3,24.7,24.7,48.6,47.2c0-3.8,0.1-14.6,0.1-23.5c0-12.5-0.1-18.9-0.6-25c-0.1-2-0.5-5-3.1-5.9c-1.2-0.5-4.6-0.8-7.1-1.1
		c-0.2-0.1-0.6-0.2-0.6-0.6l-0.1-3.4H459c4.7,0,9.5-0.4,13.2-0.4c0.6,0,1,0.2,1.1,0.6l0.7,2.5c-4.3,1-6,1.4-7.9,2.6
		c-2.3,1.2-3,5-3.6,21.3c-0.2,10.9-0.4,18.6-0.4,34.6c0,7.7,0.4,14.7,0.4,16.8c-0.1,0.6-0.8,1.2-2.4,1.9c-0.6,0.1-1.1,0.1-1.7-0.6
		c-7.1-10.4-18.2-21.7-30.8-34.1c-9.9-9.9-19.4-19.2-29.2-29.1c-0.4,6.7-0.6,15.3-0.6,22c0,10.8,0,27,1.6,31.5
		c0.8,2.8,4.6,3.7,9.5,4.7l0.8,2.9c0.1,0.4-0.6,1-1,1c-5,0-10.3-0.5-15.2-0.5c-4.2,0-7.8,0.4-9.8,0.4l-1-3.5c7.5-1.9,8-3.1,8.6-7.1
		c0.4-3,1.4-14,1.4-30.9V68.3c0-12.5-0.2-14.4-2.2-16.3c-1.9-2-3.8-3.1-8.9-3.6c-0.7-0.2-1-0.4-1-0.8V44.4z"/>
</g>
<g>
	<path class="st0" d="M0,584.2h13.6v-84.1H0v-1.7h22.9c1.1,0,2.3,0,3.4-0.1c1.1,0,2.3-0.1,3.4-0.2c1.1,0,2.3,0,3.4-0.1
		c1.1,0,2.3-0.1,3.4-0.1c2.5,0,4.6,0,6.6,0.1c1.9,0.1,3.7,0.2,5.4,0.4c1.7,0.2,3.3,0.5,4.8,0.9c1.5,0.4,3.1,0.8,4.9,1.4
		c5,1.6,9.3,3.8,13,6.6c3.6,2.7,6.6,5.9,9,9.5c2.3,3.6,4.1,7.5,5.2,11.8c1.1,4.3,1.7,8.7,1.7,13.4c0,5.4-0.7,10.3-2,14.6
		c-1.3,4.3-3.1,8.1-5.4,11.4c-2.3,3.3-5,6.2-8.1,8.6c-3.1,2.4-6.4,4.4-9.9,5.8c-2,0.9-3.8,1.6-5.6,2.1c-1.8,0.5-3.6,0.9-5.4,1.1
		c-1.8,0.2-3.9,0.4-6.1,0.5c-2.2,0.1-4.8,0.1-7.6,0.1c-1.2,0-2.5,0-3.9-0.1c-1.4,0-2.8-0.1-4.2-0.2c-1.4-0.1-2.8-0.1-4.1-0.2
		c-1.4,0-2.6-0.1-3.9-0.1H0V584.2z M25.9,584.2c1.4,0.2,3,0.3,4.9,0.4c1.8,0.1,3.9,0.1,6.1,0.1c2.8,0,5.6-0.1,8.3-0.4
		c2.7-0.3,5.4-0.9,7.9-1.8c2.5-0.9,4.8-2.3,7-4.1c2.2-1.8,4.1-4.1,5.8-6.9c2.6-4.4,4.4-9,5.5-13.6c1-4.6,1.5-9.7,1.5-15.2
		c0-6.5-0.6-12.3-1.8-17.6c-1.2-5.3-3.3-9.8-6.1-13.5c-2.8-3.7-6.6-6.6-11.2-8.7c-4.7-2-10.4-3.1-17.3-3.1c-2,0-3.9,0-5.6,0.1
		c-1.7,0.1-3.3,0.2-4.9,0.2V584.2z"/>
	<path class="st0" d="M112.8,584.2h13.6v-84.1h-13.6v-1.7h39.6v1.7h-13.6v84.1h13.6v1.7h-39.6V584.2z"/>
	<path class="st0" d="M172.5,584.2h13.6v-84.1h-13.6v-1.7h22.9c1.1,0,2.3,0,3.4-0.1c1.1,0,2.3-0.1,3.4-0.2c1.1,0,2.3,0,3.4-0.1
		c1.1,0,2.3-0.1,3.4-0.1c2.5,0,4.6,0,6.6,0.1c1.9,0.1,3.7,0.2,5.4,0.4c1.7,0.2,3.3,0.5,4.8,0.9c1.5,0.4,3.1,0.8,4.9,1.4
		c5,1.6,9.3,3.8,13,6.6c3.6,2.7,6.6,5.9,9,9.5c2.3,3.6,4.1,7.5,5.2,11.8c1.1,4.3,1.7,8.7,1.7,13.4c0,5.4-0.7,10.3-2,14.6
		c-1.3,4.3-3.1,8.1-5.4,11.4c-2.3,3.3-5,6.2-8.1,8.6c-3.1,2.4-6.4,4.4-9.9,5.8c-2,0.9-3.8,1.6-5.6,2.1c-1.8,0.5-3.6,0.9-5.4,1.1
		c-1.8,0.2-3.9,0.4-6.1,0.5s-4.8,0.1-7.6,0.1c-1.2,0-2.5,0-3.9-0.1c-1.4,0-2.8-0.1-4.2-0.2c-1.4-0.1-2.8-0.1-4.1-0.2
		c-1.4,0-2.6-0.1-3.9-0.1h-20.9V584.2z M198.4,584.2c1.4,0.2,3,0.3,4.9,0.4c1.8,0.1,3.9,0.1,6.1,0.1c2.8,0,5.6-0.1,8.3-0.4
		c2.7-0.3,5.4-0.9,7.9-1.8c2.5-0.9,4.8-2.3,7-4.1c2.2-1.8,4.1-4.1,5.8-6.9c2.6-4.4,4.4-9,5.5-13.6c1-4.6,1.5-9.7,1.5-15.2
		c0-6.5-0.6-12.3-1.8-17.6c-1.2-5.3-3.3-9.8-6.1-13.5c-2.8-3.7-6.6-6.6-11.2-8.7c-4.7-2-10.4-3.1-17.3-3.1c-2,0-3.9,0-5.6,0.1
		c-1.7,0.1-3.3,0.2-4.9,0.2V584.2z"/>
	<path class="st0" d="M289.6,542c0-6.6,1.3-12.6,3.9-18.2c2.6-5.6,5.9-10.4,10-14.5c4.1-4.1,8.6-7.3,13.7-9.7
		c5.1-2.3,10.2-3.5,15.2-3.5c5.4,0,10.7,1.2,15.8,3.5s9.7,5.6,13.7,9.7c4,4.1,7.2,8.9,9.7,14.5c2.4,5.6,3.6,11.6,3.6,18.2
		c0,5.7-1.1,11.4-3.3,16.8s-5.2,10.4-9.1,14.6c-3.9,4.3-8.4,7.7-13.6,10.3c-5.2,2.6-10.8,3.9-16.8,3.9c-6.1,0-11.8-1.3-17.1-3.8
		c-5.2-2.5-9.8-5.9-13.6-10.1c-3.8-4.2-6.8-9.1-8.9-14.6C290.7,553.6,289.6,547.9,289.6,542z M303.7,542c0,7.4,0.5,13.8,1.5,19.3
		c1,5.5,2.6,10.1,4.9,13.8c2.3,3.7,5.2,6.4,8.9,8.2c3.6,1.8,8.1,2.7,13.4,2.7c5.2,0,9.7-0.9,13.3-2.7c3.6-1.8,6.6-4.5,8.9-8.2
		c2.3-3.7,3.9-8.3,4.9-13.8c1-5.5,1.5-11.9,1.5-19.3c0-5.7-0.4-11.1-1.1-16.4c-0.7-5.3-2.2-10-4.2-14.1c-2.1-4.1-5-7.4-8.7-9.9
		c-3.7-2.5-8.6-3.7-14.6-3.7c-6,0-10.8,1.2-14.6,3.7c-3.7,2.5-6.6,5.8-8.7,9.9c-2.1,4.1-3.5,8.8-4.2,14.1
		C304.1,530.9,303.7,536.3,303.7,542z"/>
	<path class="st0" d="M416.8,584.2h13.6v-84.1h-7.1c-1.6,0-3.5,0.1-5.5,0.4c-2,0.3-4.1,1.1-6.2,2.4c-2.1,1.3-4.1,3.4-6,6.2
		c-1.9,2.8-3.6,6.7-5,11.7h-1.4v-22.5H474v22.5h-1.4c-1.4-5-3.1-8.9-5-11.7c-1.9-2.8-3.9-4.9-6-6.2c-2.1-1.3-4.2-2.1-6.2-2.4
		c-2-0.3-3.9-0.4-5.5-0.4h-7.1v84.1h13.6v1.7h-39.6V584.2z"/>
</g>
<g>
	<g>
		<path class="st0" d="M199.5,465.9l2.4-12.2l3.9,8.8l4-8.8l2.1,12.2h-1.8l-1.1-6.8l-3.3,7.3l-3.3-7.4l-1.2,6.8H199.5z"/>
		<path class="st0" d="M215.3,460.2c0-1.6,0.6-3,1.8-4.1c1.2-1.1,2.6-1.7,4.2-1.7c1.6,0,3,0.6,4.1,1.7c1.2,1.2,1.7,2.5,1.7,4.2
			c0,1.6-0.6,3-1.7,4.1c-1.2,1.1-2.6,1.7-4.2,1.7c-1.5,0-2.8-0.5-3.9-1.5C215.9,463.5,215.3,462,215.3,460.2z M217,460.2
			c0,1.2,0.4,2.3,1.3,3.1c0.8,0.8,1.8,1.2,2.9,1.2c1.2,0,2.2-0.4,3-1.2c0.8-0.8,1.2-1.8,1.2-3c0-1.2-0.4-2.2-1.2-3
			c-0.8-0.8-1.8-1.2-3-1.2c-1.2,0-2.2,0.4-3,1.2C217.4,458,217,459,217,460.2z"/>
		<path class="st0" d="M230.7,465.9v-11.3h2.4c1.1,0,2,0.1,2.7,0.3c0.7,0.2,1.4,0.6,1.9,1.1c1.2,1.1,1.8,2.5,1.8,4.2
			c0,1.7-0.6,3.1-1.8,4.2c-0.6,0.5-1.2,0.9-1.9,1.1c-0.6,0.2-1.5,0.3-2.7,0.3H230.7z M232.4,464.3h0.8c0.8,0,1.4-0.1,1.9-0.2
			c0.5-0.2,1-0.4,1.4-0.8c0.8-0.8,1.3-1.8,1.3-3c0-1.2-0.4-2.2-1.2-3c-0.7-0.7-1.8-1-3.3-1h-0.8V464.3z"/>
		<path class="st0" d="M249.4,456.2h-4.5v2.7h4.4v1.6h-4.4v3.8h4.5v1.6h-6.2v-11.3h6.2V456.2z"/>
		<path class="st0" d="M256.9,461.1l3.5,4.8h-2.1l-3.2-4.6h-0.3v4.6h-1.7v-11.3h2c1.5,0,2.6,0.3,3.2,0.8c0.7,0.6,1.1,1.5,1.1,2.5
			c0,0.8-0.2,1.5-0.7,2.1S257.7,460.9,256.9,461.1z M254.8,459.8h0.5c1.6,0,2.4-0.6,2.4-1.9c0-1.2-0.8-1.7-2.4-1.7h-0.6V459.8z"/>
		<path class="st0" d="M263.6,465.9v-12.1l8.2,8.6v-7.9h1.7v12l-8.2-8.6v7.9H263.6z"/>
	</g>
	<rect x="130" y="459.7" class="st0" width="63.2" height="1"/>
	<rect x="280.7" y="459.7" class="st0" width="63.2" height="1"/>
</g>
<g>
	<g>
		<path class="st0" d="M70.2,328.3c-0.8,0.1-1.9,0.3-3.2,0.5c-1.4,0.2-2.5,0.5-3.3,0.9c-1,0.5-1.7,1.2-2.1,2.1
			c-0.4,0.9-0.6,2-0.6,3.2v5.5c0,4,0,6.7,0.1,8.2s0.1,2.6,0.2,3.5c-4.5,2-8.9,3.6-13.3,4.6c-4.4,1.1-8.8,1.6-13,1.6
			c-4.6,0-9-0.9-13.2-2.6c-4.2-1.7-7.9-4.1-11.1-7.3c-3.2-3.2-5.7-7.1-7.6-11.6c-1.9-4.6-2.8-9.7-2.8-15.3c0-5.4,0.9-10.5,2.7-15.1
			c1.8-4.7,4.3-8.7,7.6-12.1c3.2-3.4,7-6,11.4-7.8c4.4-1.9,9.1-2.8,14.2-2.8c4,0,7.5,0.5,10.5,1.5c3,1,5.6,2.1,7.9,3.5l2.1-3.4h4
			l0.5,25h-4.1c-0.7-2.8-1.6-5.5-2.6-8.1c-1-2.7-2.4-5.1-4-7.2c-1.6-2.1-3.7-3.8-6-5.1c-2.4-1.3-5.2-1.9-8.5-1.9
			c-3.6,0-6.8,0.7-9.6,2.2c-2.8,1.5-5.3,3.6-7.4,6.5c-2.1,2.8-3.6,6.3-4.7,10.4c-1.1,4.2-1.7,8.8-1.7,14c0,4.5,0.5,8.8,1.6,12.8
			s2.7,7.5,4.8,10.4c2.1,3,4.7,5.3,7.8,7.1s6.7,2.6,10.6,2.6c3,0,5.7-0.5,8.1-1.4c2.4-0.9,4.2-1.9,5.2-2.9c0.3-1.7,0.4-3.5,0.4-5.3
			c0-1.8,0-3.3,0-4.5v-3.9c0-1.4-0.2-2.7-0.6-3.8c-0.4-1.1-1.2-1.9-2.4-2.4c-1.1-0.5-2.6-0.9-4.5-1.1c-1.9-0.3-3.4-0.4-4.5-0.5v-3.7
			h31.3V328.3z"/>
		<path class="st0" d="M135.9,335.8l-1.4,21.1H75.2v-3.6c1-0.1,2.4-0.2,4-0.4c1.7-0.2,2.8-0.4,3.3-0.7c1.1-0.5,1.8-1.2,2.2-2
			c0.4-0.8,0.6-1.8,0.6-3.1v-51.4c0-1.1-0.2-2.1-0.6-2.9c-0.4-0.9-1.1-1.6-2.3-2.1c-0.9-0.4-2.1-0.8-3.7-1.2
			c-1.5-0.3-2.7-0.5-3.7-0.6v-3.6h55.3v17.2h-3.8c-0.7-2.6-2.1-5.3-4.4-8.1c-2.2-2.9-4.4-4.4-6.4-4.7c-1-0.1-2.3-0.2-3.7-0.3
			c-1.4-0.1-3.1-0.1-4.9-0.1H96.1v28.4h8.1c2.6,0,4.5-0.2,5.7-0.7c1.2-0.5,2.2-1.3,3.1-2.4c0.7-1,1.4-2.3,1.9-3.9
			c0.5-1.6,0.9-3.2,1-4.6h3.8v28h-3.8c-0.1-1.6-0.5-3.3-1.1-5.1c-0.6-1.8-1.2-3.1-1.8-3.9c-1-1.3-2.2-2.2-3.6-2.6
			c-1.3-0.4-3.1-0.6-5.3-0.6h-8.1v21.4c0,2.1,0.2,3.8,0.5,5.1c0.3,1.2,0.9,2.2,1.8,2.8c0.9,0.6,2.1,1,3.6,1.2
			c1.5,0.2,3.7,0.3,6.4,0.3c1.1,0,2.6,0,4.4,0c1.8,0,3.3-0.1,4.6-0.2c1.3-0.1,2.6-0.4,4-0.7s2.3-0.8,2.9-1.4
			c1.5-1.6,3.2-4.1,4.9-7.3c1.7-3.3,2.8-5.7,3.2-7.2H135.9z"/>
		<path class="st0" d="M200.9,293.8c3.2,3.3,5.6,7.3,7.4,11.9c1.8,4.7,2.7,9.8,2.7,15.4c0,5.7-0.9,10.8-2.7,15.5
			c-1.8,4.6-4.3,8.6-7.6,11.8c-3.1,3.2-6.7,5.7-10.9,7.5c-4.1,1.7-8.5,2.6-13.2,2.6c-5,0-9.6-0.9-13.8-2.8
			c-4.2-1.9-7.8-4.5-10.9-7.8c-3-3.3-5.4-7.2-7.1-11.9c-1.7-4.7-2.6-9.6-2.6-14.9c0-5.8,0.9-11,2.7-15.5s4.3-8.5,7.5-11.8
			c3.2-3.3,6.8-5.8,11-7.6c4.2-1.7,8.6-2.6,13.1-2.6c4.7,0,9.2,0.9,13.4,2.7C194.3,288.1,197.9,290.6,200.9,293.8z M193.4,344.5
			c1.9-3.1,3.2-6.5,4.1-10.4c0.9-3.9,1.3-8.2,1.3-12.9c0-4.9-0.5-9.4-1.4-13.5c-1-4.1-2.4-7.6-4.2-10.5c-1.8-2.9-4.2-5.1-7-6.7
			c-2.8-1.6-6-2.4-9.6-2.4c-4,0-7.5,0.9-10.3,2.8c-2.8,1.8-5.1,4.3-6.9,7.4c-1.7,3-2.9,6.4-3.8,10.4c-0.8,4-1.2,8.1-1.2,12.5
			c0,4.8,0.4,9.2,1.3,13.1c0.9,3.9,2.2,7.4,4.1,10.4c1.8,3,4.1,5.3,6.9,6.9c2.8,1.7,6,2.5,9.9,2.5c3.6,0,6.8-0.8,9.7-2.5
			C189.3,349.8,191.6,347.5,193.4,344.5z"/>
		<path class="st0" d="M289.6,356.8h-19.2c-4.3-6.7-8.1-12.5-11.5-17.3c-3.4-4.9-7.2-9.9-11.2-15.1h-7.3v22.7c0,1.2,0.2,2.2,0.6,3.1
			c0.4,0.9,1.2,1.6,2.4,2c0.6,0.2,1.7,0.5,3.2,0.7c1.5,0.2,2.8,0.3,3.8,0.4v3.6H220v-3.6c0.8-0.1,2-0.2,3.5-0.4
			c1.5-0.2,2.6-0.4,3.2-0.7c1-0.4,1.7-1.1,2.2-1.9c0.5-0.8,0.7-1.9,0.7-3.2v-51.7c0-1.2-0.2-2.2-0.5-3.1s-1.1-1.6-2.4-2.1
			c-0.8-0.3-1.9-0.6-3.3-0.8c-1.3-0.3-2.5-0.4-3.4-0.5v-3.6h33c3,0,5.9,0.3,8.5,0.9c2.7,0.6,5.1,1.6,7.2,3c2.1,1.3,3.7,3.1,5,5.3
			s1.9,4.8,1.9,7.8c0,2.8-0.4,5.2-1.3,7.3c-0.8,2.1-2.1,3.9-3.7,5.5c-1.5,1.4-3.3,2.7-5.4,3.8s-4.4,2-7,2.7
			c3.5,4.7,6.5,8.6,8.8,11.8c2.3,3.2,5.2,7.1,8.6,11.6c1.5,2,2.8,3.5,4,4.5c1.2,1,2.4,1.7,3.6,2.3c0.9,0.4,2,0.8,3.3,1
			c1.3,0.2,2.4,0.4,3.3,0.4V356.8z M263.1,303.5c0-4.3-1.2-7.8-3.7-10.3s-6-3.8-10.5-3.8h-8.6v30.6h6.6c4.6,0,8.5-1.5,11.6-4.5
			C261.5,312.7,263.1,308.6,263.1,303.5z"/>
		<path class="st0" d="M361.5,328.3c-0.8,0.1-1.9,0.3-3.2,0.5c-1.4,0.2-2.5,0.5-3.3,0.9c-1,0.5-1.7,1.2-2.1,2.1
			c-0.4,0.9-0.6,2-0.6,3.2v5.5c0,4,0,6.7,0.1,8.2c0,1.4,0.1,2.6,0.2,3.5c-4.5,2-8.9,3.6-13.3,4.6c-4.4,1.1-8.8,1.6-13,1.6
			c-4.6,0-9-0.9-13.2-2.6c-4.2-1.7-7.9-4.1-11.1-7.3c-3.2-3.2-5.7-7.1-7.6-11.6c-1.9-4.6-2.8-9.7-2.8-15.3c0-5.4,0.9-10.5,2.7-15.1
			c1.8-4.7,4.3-8.7,7.6-12.1c3.2-3.4,7-6,11.4-7.8c4.4-1.9,9.1-2.8,14.2-2.8c4,0,7.5,0.5,10.5,1.5c3,1,5.6,2.1,7.9,3.5l2.1-3.4h4
			l0.5,25h-4.1c-0.7-2.8-1.6-5.5-2.6-8.1c-1-2.7-2.4-5.1-4-7.2c-1.6-2.1-3.7-3.8-6-5.1c-2.4-1.3-5.2-1.9-8.5-1.9
			c-3.6,0-6.8,0.7-9.6,2.2c-2.8,1.5-5.3,3.6-7.4,6.5c-2.1,2.8-3.6,6.3-4.7,10.4c-1.1,4.2-1.7,8.8-1.7,14c0,4.5,0.5,8.8,1.6,12.8
			c1.1,4,2.7,7.5,4.8,10.4c2.1,3,4.7,5.3,7.8,7.1c3.1,1.7,6.7,2.6,10.6,2.6c3,0,5.7-0.5,8.1-1.4c2.4-0.9,4.2-1.9,5.2-2.9
			c0.3-1.7,0.4-3.5,0.4-5.3c0-1.8,0-3.3,0-4.5v-3.9c0-1.4-0.2-2.7-0.6-3.8c-0.4-1.1-1.2-1.9-2.4-2.4c-1.1-0.5-2.6-0.9-4.5-1.1
			c-1.9-0.3-3.4-0.4-4.5-0.5v-3.7h31.3V328.3z"/>
		<path class="st0" d="M398.4,356.8h-32.2v-3.6c0.9-0.1,2.2-0.2,3.9-0.3c1.7-0.1,2.9-0.3,3.6-0.6c1.1-0.4,1.9-1,2.4-1.8
			c0.5-0.8,0.8-1.8,0.8-3.1v-51.8c0-1.2-0.2-2.2-0.6-2.9c-0.4-0.8-1.2-1.5-2.6-2c-1-0.4-2.3-0.8-3.8-1.1s-2.8-0.6-3.8-0.6v-3.6h32.2
			v3.6c-1,0-2.3,0.2-3.7,0.4c-1.4,0.2-2.7,0.5-3.8,0.8c-1.3,0.4-2.1,1.1-2.6,2s-0.7,1.9-0.7,3v51.7c0,1.1,0.2,2.1,0.7,2.9
			c0.5,0.9,1.3,1.5,2.5,2c0.7,0.3,1.9,0.6,3.5,0.9c1.6,0.3,2.9,0.5,4.1,0.5V356.8z"/>
		<path class="st0" d="M474,356.8h-29.7v-3.6c2.6-0.2,4.8-0.5,6.5-1s2.6-1.1,2.6-1.9c0-0.3,0-0.7-0.1-1.1c-0.1-0.4-0.2-0.8-0.3-1.2
			l-5.9-16H422c-0.9,2.4-1.7,4.4-2.3,6.1c-0.6,1.7-1.1,3.4-1.6,4.8c-0.4,1.4-0.7,2.6-0.9,3.5s-0.3,1.6-0.3,2.2
			c0,1.3,1.1,2.4,3.2,3.1c2.1,0.7,4.5,1.2,7.2,1.3v3.6h-26.9v-3.6c0.9-0.1,2-0.3,3.3-0.6c1.3-0.3,2.4-0.7,3.2-1.3
			c1.3-0.9,2.4-1.9,3.1-2.8c0.7-1,1.5-2.4,2.2-4.1c3.6-9,7.6-19,11.9-30.2c4.3-11.2,8.2-21.1,11.6-29.9h4l23.8,61.7
			c0.5,1.3,1.1,2.4,1.7,3.2c0.6,0.8,1.5,1.6,2.7,2.4c0.8,0.5,1.8,0.9,3,1.2c1.2,0.3,2.3,0.5,3.1,0.5V356.8z M445.2,327.6l-10.8-27.7
			l-10.7,27.7H445.2z"/>
	</g>
	<g>
		<g>
			<path class="st0" d="M178.5,243.2v9.7h-1.7v-9.7h-2.6v-1.6h6.9v1.6H178.5z"/>
			<path class="st0" d="M187.9,248.1l3.5,4.8h-2.1l-3.2-4.6h-0.3v4.6h-1.7v-11.3h2c1.5,0,2.6,0.3,3.2,0.8c0.7,0.6,1.1,1.5,1.1,2.5
				c0,0.8-0.2,1.5-0.7,2.1S188.6,247.9,187.9,248.1z M185.8,246.8h0.5c1.6,0,2.4-0.6,2.4-1.9c0-1.2-0.8-1.7-2.4-1.7h-0.6V246.8z"/>
			<path class="st0" d="M201.2,250.2h-4.8l-1.3,2.7h-1.8l5.6-12l5.4,12h-1.9L201.2,250.2z M200.5,248.5l-1.7-3.8l-1.8,3.8H200.5z"/>
			<path class="st0" d="M207.2,252.9v-12.1l8.2,8.6v-7.9h1.7v12l-8.2-8.6v7.9H207.2z"/>
			<path class="st0" d="M227.8,243.3l-1.4,0.8c-0.3-0.4-0.5-0.7-0.7-0.9c-0.2-0.2-0.6-0.2-0.9-0.2c-0.5,0-0.9,0.1-1.2,0.4
				c-0.3,0.3-0.5,0.6-0.5,1c0,0.6,0.4,1,1.2,1.3l1.1,0.5c0.9,0.4,1.6,0.8,2,1.4c0.4,0.5,0.6,1.2,0.6,2c0,1-0.3,1.9-1,2.6
				c-0.7,0.7-1.6,1-2.6,1c-1,0-1.8-0.3-2.4-0.9c-0.6-0.6-1-1.4-1.2-2.5l1.7-0.4c0.1,0.7,0.2,1.1,0.4,1.4c0.4,0.5,0.9,0.7,1.5,0.7
				c0.5,0,1-0.2,1.3-0.5s0.5-0.8,0.5-1.4c0-0.2,0-0.4-0.1-0.6c-0.1-0.2-0.2-0.4-0.3-0.5c-0.1-0.2-0.3-0.3-0.5-0.4
				c-0.2-0.1-0.4-0.3-0.7-0.4l-1.1-0.5c-1.5-0.7-2.3-1.6-2.3-2.9c0-0.8,0.3-1.6,1-2.1c0.6-0.6,1.5-0.9,2.4-0.9
				C226,241.4,227,242,227.8,243.3z"/>
			<path class="st0" d="M233.3,241.6v11.3h-1.7v-11.3H233.3z"/>
			<path class="st0" d="M240.7,243.2v9.7H239v-9.7h-2.6v-1.6h6.9v1.6H240.7z"/>
			<path class="st0" d="M248,241.6v11.3h-1.7v-11.3H248z"/>
			<path class="st0" d="M251.6,247.2c0-1.6,0.6-3,1.8-4.1c1.2-1.1,2.6-1.7,4.2-1.7c1.6,0,3,0.6,4.1,1.7c1.2,1.2,1.7,2.5,1.7,4.2
				c0,1.6-0.6,3-1.7,4.1c-1.2,1.1-2.6,1.7-4.2,1.7c-1.5,0-2.8-0.5-3.9-1.5C252.3,250.5,251.6,249,251.6,247.2z M253.4,247.2
				c0,1.2,0.4,2.3,1.3,3.1c0.8,0.8,1.8,1.2,2.9,1.2c1.2,0,2.2-0.4,3-1.2c0.8-0.8,1.2-1.8,1.2-3c0-1.2-0.4-2.2-1.2-3
				c-0.8-0.8-1.8-1.2-3-1.2c-1.2,0-2.2,0.4-3,1.2C253.8,245,253.4,246,253.4,247.2z"/>
			<path class="st0" d="M267.1,252.9v-12.1l8.2,8.6v-7.9h1.7v12l-8.2-8.6v7.9H267.1z"/>
			<path class="st0" d="M288,250.2h-4.8l-1.3,2.7h-1.8l5.6-12l5.4,12h-1.9L288,250.2z M287.3,248.5l-1.7-3.8l-1.8,3.8H287.3z"/>
			<path class="st0" d="M295.7,241.6v9.7h3.3v1.6h-5v-11.3H295.7z"/>
		</g>
		<rect x="104.7" y="246.7" class="st0" width="63.2" height="1"/>
		<rect x="306.1" y="246.7" class="st0" width="63.2" height="1"/>
	</g>
</g>
<g>
	<g>
		<path class="st0" d="M193.8,5.8c0-1.6,0.6-3,1.8-4.1c1.2-1.1,2.6-1.7,4.2-1.7c1.6,0,3,0.6,4.1,1.7c1.2,1.2,1.7,2.5,1.7,4.2
			c0,1.6-0.6,3-1.7,4.1c-1.2,1.1-2.6,1.7-4.2,1.7c-1.5,0-2.8-0.5-3.9-1.5C194.4,9.1,193.8,7.6,193.8,5.8z M195.5,5.8
			c0,1.2,0.4,2.3,1.3,3.1c0.8,0.8,1.8,1.2,2.9,1.2c1.2,0,2.2-0.4,3-1.2c0.8-0.8,1.2-1.8,1.2-3c0-1.2-0.4-2.2-1.2-3
			c-0.8-0.8-1.8-1.2-3-1.2c-1.2,0-2.2,0.4-3,1.2C195.9,3.7,195.5,4.7,195.5,5.8z"/>
		<path class="st0" d="M210.9,0.2v9.7h3.3v1.6h-5V0.2H210.9z"/>
		<path class="st0" d="M217.4,11.5V0.2h2.4c1.1,0,2,0.1,2.7,0.3c0.7,0.2,1.4,0.6,1.9,1.1c1.2,1.1,1.8,2.5,1.8,4.2
			c0,1.7-0.6,3.1-1.8,4.2c-0.6,0.5-1.2,0.9-1.9,1.1c-0.6,0.2-1.5,0.3-2.7,0.3H217.4z M219.1,9.9h0.8c0.8,0,1.4-0.1,1.9-0.2
			c0.5-0.2,1-0.4,1.4-0.8c0.8-0.8,1.3-1.8,1.3-3c0-1.2-0.4-2.2-1.2-3c-0.7-0.7-1.8-1-3.3-1h-0.8V9.9z"/>
		<path class="st0" d="M228.4,7.2h3.3v1.4h-3.3V7.2z"/>
		<path class="st0" d="M240.9,1.9l-1.4,0.8c-0.3-0.4-0.5-0.7-0.7-0.9c-0.2-0.2-0.6-0.2-0.9-0.2c-0.5,0-0.9,0.1-1.2,0.4
			c-0.3,0.3-0.5,0.6-0.5,1c0,0.6,0.4,1,1.2,1.3l1.1,0.5c0.9,0.4,1.6,0.8,2,1.4c0.4,0.5,0.6,1.2,0.6,2c0,1-0.3,1.9-1,2.6
			c-0.7,0.7-1.6,1-2.6,1c-1,0-1.8-0.3-2.4-0.9c-0.6-0.6-1-1.4-1.2-2.5l1.7-0.4c0.1,0.7,0.2,1.1,0.4,1.4c0.4,0.5,0.9,0.7,1.5,0.7
			c0.5,0,1-0.2,1.3-0.5s0.5-0.8,0.5-1.4c0-0.2,0-0.4-0.1-0.6c-0.1-0.2-0.2-0.4-0.3-0.5s-0.3-0.3-0.5-0.4c-0.2-0.1-0.4-0.3-0.7-0.4
			l-1.1-0.5c-1.5-0.7-2.3-1.6-2.3-2.9c0-0.8,0.3-1.6,1-2.1c0.6-0.6,1.5-0.9,2.4-0.9C239.2,0,240.2,0.6,240.9,1.9z"/>
		<path class="st0" d="M248.1,1.8v9.7h-1.7V1.8h-2.6V0.2h6.9v1.6H248.1z"/>
		<path class="st0" d="M256.7,6.6l-3.7-6.4h2l2.6,4.5l2.6-4.5h2l-3.7,6.4v4.9h-1.7V6.6z"/>
		<path class="st0" d="M266.7,0.2v9.7h3.3v1.6h-5V0.2H266.7z"/>
		<path class="st0" d="M279.4,1.8h-4.5v2.7h4.4v1.6h-4.4v3.8h4.5v1.6h-6.2V0.2h6.2V1.8z"/>
	</g>
	<rect x="124.3" y="5.4" class="st0" width="63.2" height="1"/>
	<rect x="286.5" y="5.4" class="st0" width="63.2" height="1"/>
</g>
</svg>
