<?xml version="1.0" encoding="utf-8"?>
<!-- Generator: Adobe Illustrator 19.0.1, SVG Export Plug-In . SVG Version: 6.00 Build 0)  -->
<svg version="1.1" id="Layer_1" xmlns="http://www.w3.org/2000/svg" xmlns:xlink="http://www.w3.org/1999/xlink" x="0px" y="0px"
	 viewBox="0 0 470 495.8" style="enable-background:new 0 0 470 495.8;" xml:space="preserve">
<style type="text/css">
	.st0{fill:none;stroke:#BCBCBC;stroke-miterlimit:10;}
	.st1{fill:none;stroke:#BCBCBC;stroke-miterlimit:10;stroke-dasharray:6,6;}
	.st2{fill:none;stroke:#BCBCBC;stroke-miterlimit:10;stroke-dasharray:6;}
	.st3{fill:#89C5B9;}
</style>
<g>
	<line class="st0" x1="-1061.9" y1="-544.1" x2="-587.9" y2="-544.1"/>
	<line class="st0" x1="-1061.9" y1="-539.1" x2="-587.9" y2="-539.1"/>
	<g>
		<g>
			<line class="st0" x1="-1061.9" y1="-499.1" x2="-1058.9" y2="-499.1"/>
			<line class="st1" x1="-1052.9" y1="-499.1" x2="-593.9" y2="-499.1"/>
			<line class="st0" x1="-590.9" y1="-499.1" x2="-587.9" y2="-499.1"/>
		</g>
	</g>
	<line class="st2" x1="-1061.9" y1="-431.1" x2="-587.9" y2="-431.1"/>
	<g>
		<path class="st3" d="M-919.4-539.5l1.7,5.1v0.2l3.4,10.6l0.2,0.2l27.8,84.6c0,0,1.2,4,7.6,4l3.9,3.9h-48.6l3.9-3.9
			c9.9,0,9.2-3.6,9-4l-10.2-31.2h-28.6l-10.7,31.2c-0.2,0.5-1.1,4,8.8,4l4,3.9h-28.7l4-3.9c6.4,0,7.6-4,7.6-4l25.3-73.6l2.2-6.2
			l3.1-9.3l1.6-4.2l11.3-11.5l0.6,2.2L-919.4-539.5z M-922.2-474l-12.6-38.5L-948-474H-922.2z"/>
		<path class="st3" d="M-810.9-539.7c0,0,28.6-1.1,28.6,22.4c0,0,1.2,15.4-15.4,20.6c11.5,3.3,25.6,11.3,25.6,31.8
			c0,0,3.7,33.8-40.4,33.8h-53.1l4-4c9.2,0,10.2-2.6,10.2-3.6v-93.4c0-0.9-1.1-3.7-10.2-3.7l-3.9-3.9H-810.9z M-828.2-498.9h17.2
			c0,0,10.1,1.2,10.1-18.5c0,0,0.5-18.5-10.1-18.5h-17.2V-498.9z M-828.2-435.1h15.7c0,0,21.9,2.9,21.9-29.8c0,0,2.5-30-21.9-30
			h-15.7V-435.1z"/>
		<path class="st3" d="M-677.9-510.7v-2.3c-0.3-6.7-3.4-24.7-28.1-24.7h-0.9c-4.7,0-27.2,1.7-27.2,33.7v33.1
			c0.6,32.8,19.1,37.1,25.8,37.6c1.4,0.2,2.3,0.2,2.3,0.2c24.4,0,27.8-26.1,28.1-36.6v-0.5l4-3.9v45.2l-10.2-10.2
			c-9.3,11-21.9,10.2-21.9,10.2c-54.9,0-51.2-56.3-51.2-56.3s-4-56.3,51.2-56.3c0,0,14.3,0,23.9,8.2l3.1-3.3l1.1-1.1l4-3.9v27
			L-677.9-510.7z"/>
	</g>
</g>
<g>
	<line class="st0" x1="-1061.9" y1="-247.1" x2="-587.9" y2="-247.1"/>
	<line class="st0" x1="-1061.9" y1="-378.1" x2="-587.9" y2="-378.1"/>
	<line class="st0" x1="-1061.9" y1="-373.1" x2="-587.9" y2="-373.1"/>
	<g>
		<g>
			<line class="st0" x1="-1061.9" y1="-333.1" x2="-1058.9" y2="-333.1"/>
			<line class="st1" x1="-1052.9" y1="-333.1" x2="-593.9" y2="-333.1"/>
			<line class="st0" x1="-590.9" y1="-333.1" x2="-587.9" y2="-333.1"/>
		</g>
	</g>
	<line class="st2" x1="-1061.9" y1="-265.1" x2="-587.9" y2="-265.1"/>
	<g>
		<path class="st3" d="M-905.5-369.9c-9,0-10.1,2.6-10.2,3.6v87.7c0,0,1.9,31.8-34.3,31.8c-17.4,0-16.1-15.2-16.1-15.2
			c0-3.9,3.3-7.1,7.1-7.1c4,0,7.3,3.3,7.3,7.1c0,0,0.3,2.9-3.1,7.3c0,0-0.6,0.8-0.6,1.7c0,1.1,0.9,2.3,5.4,2.3
			c12.1,0,11.3-27.9,11.3-27.9v-87.7c-0.2-0.9-1.2-3.6-10.2-3.6l-3.9-4h51.4L-905.5-369.9z"/>
		<path class="st3" d="M-831.5-373.9c36.8,0,33.8,26.9,33.8,26.9s0,26.9-33.8,26.9h-17.2v47.3c0.2,0.9,1.2,3.6,10.2,3.6l3.9,4H-886
			l4-4c9,0,10.1-2.6,10.2-3.6v-93.4c-0.2-0.9-1.1-3.6-10.2-3.6l-4-4H-831.5z M-848.7-324.3h17.2c15.7,0,15.4-22.8,15.4-22.8
			s0.3-22.8-15.4-22.8h-17.2V-324.3z"/>
		<path class="st3" d="M-691.2-319.4c0,0,2.9,47.2-37.1,53.9c2.2,10.2,10.4,14.9,18.2,17.1l3.3,3.3c-2.5,0.2-4.7,0.3-6.7,0.3
			c-11.2,0-16.9-2.2-16.9-2.2c-14.3-5-16.9-14.1-17.2-18.5c-40.5-6.4-37.4-53.9-37.4-53.9s-3.7-54.6,46.9-54.6
			C-687.5-374.1-691.2-319.4-691.2-319.4z M-742.9-369.9c-7.3,1.2-21.1,7.1-21.1,32.4v32c0.6,31.8,17.5,36,23.7,36.6h2h2.2
			c6.1-0.6,23.1-4.8,23.7-36.6v-32c0-25.3-13.8-31.2-21.3-32.4c-2.6-0.3-4.7-0.3-4.7-0.3S-740.1-370.2-742.9-369.9z"/>
	</g>
</g>
<g>
	<text transform="matrix(1 0 0 1 566.8066 477.6989)"><tspan x="0" y="0" class="st3" style="font-family:'Leviathan-Regular'; font-size:44.2766px;">H</tspan><tspan x="33.2" y="0" class="st3" style="font-family:'Leviathan-Regular'; font-size:44.2766px;">AR</tspan><tspan x="95.9" y="0" class="st3" style="font-family:'Leviathan-Regular'; font-size:44.2766px;">P</tspan><tspan x="124.2" y="0" class="st3" style="font-family:'Leviathan-Regular'; font-size:44.2766px; letter-spacing:1;">O</tspan><tspan x="156.8" y="0" class="st3" style="font-family:'Leviathan-Regular'; font-size:44.2766px; letter-spacing:-1;">O</tspan><tspan x="186.7" y="0" class="st3" style="font-family:'Leviathan-Regular'; font-size:44.2766px;">N</tspan></text>
	<text transform="matrix(1 0 0 1 813.1138 477.6989)"><tspan x="0" y="0" class="st3" style="font-family:'Leviathan-Regular'; font-size:44.2766px;">F</tspan><tspan x="29.5" y="0" class="st3" style="font-family:'Leviathan-Regular'; font-size:44.2766px; letter-spacing:3;">I</tspan><tspan x="50.8" y="0" class="st3" style="font-family:'Leviathan-Regular'; font-size:44.2766px; letter-spacing:1;">S</tspan><tspan x="77.2" y="0" class="st3" style="font-family:'Leviathan-Regular'; font-size:44.2766px;">H</tspan></text>
	<g>
		<path class="st3" d="M625.1,493.4l-2.3,2.2c-3.7,0-4.4,2.3-4.4,2.3l-4.9,14.2l10,30.8l15.4-45c0.1-0.3,0.6-2.3-5-2.3l-2.3-2.2H648
			l-2.2,2.2c-3.7,0-4.5,2.3-4.5,2.3l-2.8,8.1L624,548.5l-1.6,4.5l-5.2,5.3l-9.5-29.3l-3.9,11.5l-1.3,3.6l-2.6,7.8l-6.6,6.5l-0.4-1.2
			l-0.4-1.2l-1-3v-0.1l-2-6.1l-0.1-0.1l-16-48.8c0,0-0.7-2.3-4.4-2.3l-2.2-2.2h29.3v-0.1h11.2v0.1H625.1z M592.6,495.7
			c-5.6,0-5.3,2.1-5.2,2.3l14,42.4l5.2-15l-9.7-29.7H592.6z M612.3,508.6l3.7-10.6c0.1-0.3,0.6-2.3-5.1-2.3h-2.8L612.3,508.6z"/>
		<path class="st3" d="M668.9,493.5l1,3v0.1l2,6.1l0.1,0.1l16,48.8c0,0,0.7,2.3,4.4,2.3l2.2,2.2h-28l2.2-2.2c5.7,0,5.3-2.1,5.2-2.3
			l-5.9-18h-16.5l-6.2,18c-0.1,0.3-0.6,2.3,5.1,2.3l2.3,2.2h-16.6l2.3-2.2c3.7,0,4.4-2.3,4.4-2.3l14.6-42.4l1.3-3.6l1.8-5.4l0.9-2.4
			l6.5-6.6l0.4,1.3L668.9,493.5z M667.3,531.3l-7.2-22.2l-7.6,22.2H667.3z"/>
		<path class="st3" d="M744.7,510.2c0,0,1.3-14.5-11.8-14.5h-6.4v56c0.1,0.5,0.7,2.1,5.9,2.1l2.2,2.3h-29.5l2.2-2.3
			c4.8,0,5.7-1.3,5.9-1.9v-56.2h-6.4c-13.2,0-11.9,14.5-11.9,14.5l-2.2-2.2v-14.5H747v14.5L744.7,510.2z"/>
		<path class="st3" d="M803.4,507.9c-0.2-4-1.9-12.2-11.8-12.2h-16v21.3h4.6c7.7,0,8.9-5.3,9.1-7.8v-1.3l2.3,2.2v23.4l-2.3-2.3V531
			c-0.2-4-1.6-11.7-9.1-11.7h-4.6v34.4h16c10.4,0,13.2-14.1,13.9-20l2.6-2.5l-2.3,24.9h-51.5l2.2-2.3c4.8,0,5.7-1.3,5.9-1.9v-54.1
			c-0.2-0.6-1.1-2.1-5.9-2.1l-2.2-2.2h51.5v14.5l-2.3,2.2V507.9z"/>
		<path class="st3" d="M846.6,493.4c0,0,16.6-0.6,16.6,13c0,0,0.8,10.6-11.9,12.6c13.1,4.9,11.9,17.5,11.9,17.5s-0.1,0.8-0.1,2.1
			c0,4.6,0.9,15.2,8.5,15.2l2.3,2.3c-2.3,0.7-4.4,1.1-6.2,1.2h-0.8c-15.8,0-14.4-20.8-14.4-20.8s1-17.2-13.6-17.2h-2.2v32.4
			c0,0.5,0.7,2.1,5.9,2.1l2.2,2.3h-29.6l2.2-2.3c5.3,0,5.9-1.5,5.9-2.1v-53.9c0-0.5-0.6-2.1-5.9-2.1l-2.2-2.3H846.6z M836.6,517.1
			h9.9c0,0,5.9,0.6,5.9-10.6c0,0,0.3-10.6-5.9-10.6h-9.9V517.1z"/>
		<path class="st3" d="M916.5,510.2v-1.4c-0.2-3.8-2-14.1-16.2-14.1c-14.5,0.4-14.5,10.2-14.5,10.2c0,10.9,15.5,10.5,15.5,10.5
			c22.5,0,21.4,20.2,21.4,20.2c0,16.6-10.6,20.5-17,21.4h-0.1c-0.6,0.1-1.3,0.2-1.8,0.2c-1.2,0.1-2.8,0.2-4.4,0.2
			c-0.4,0-1.5,0-3-0.4c-1.3-0.2-2.4-0.5-3.4-1.1c-2-0.8-4.1-2.2-6.1-4.5l-3.6,3.6l-2.3,2.2v-25.9l2.3,2.2v0.3c0.2,5,1.5,16,9.8,19.8
			c1.1,0.4,3,1.1,5.9,1.3h0.4v0.1h2.1c15.2-0.2,15.3-12.9,15.3-12.9c0-14.5-15.7-12.9-15.7-12.9c-18.1,0-21.2-10.4-21.2-17.6
			c0-3.8,0.9-6.6,0.9-6.6c3.3-11.5,15.7-12.5,19.3-12.5h0.1h0.9c2.3,0.2,8.4,1,12.8,4.7l1.8-1.9l2.9-2.9v15.6L916.5,510.2z"/>
	</g>
</g>
<g>
	<path class="st3" d="M192.2,1.2c-1.4,0-1.6,0.4-1.6,0.6v14.4c0,0.1,0.2,0.6,1.6,0.6l0.6,0.6h-7.2l0.6-0.6c1.4,0,1.6-0.4,1.6-0.6
		V7.6H182v8.6c0,0-0.1,0.6,1.6,0.6l0.6,0.6h-7.9l0.6-0.6c1.3,0,1.5-0.4,1.6-0.5V1.8c0-0.1-0.2-0.6-1.6-0.6l-0.6-0.6h7.9l-0.6,0.6
		c-1.7,0-1.6,0.6-1.6,0.6V7h5.8V1.8c0-0.1-0.2-0.6-1.6-0.6l-0.6-0.6h7.2L192.2,1.2z"/>
	<path class="st3" d="M202.5,0.6l0.3,0.8v0l0.5,1.6l0,0l4.3,13.1c0,0,0.2,0.6,1.2,0.6l0.6,0.6h-7.5l0.6-0.6c1.5,0,1.4-0.6,1.4-0.6
		l-1.6-4.8h-4.4l-1.7,4.8c0,0.1-0.2,0.6,1.4,0.6l0.6,0.6h-4.4l0.6-0.6c1,0,1.2-0.6,1.2-0.6l3.9-11.4l0.3-1l0.5-1.4l0.2-0.6l1.8-1.8
		l0.1,0.3L202.5,0.6z M202.1,10.8l-1.9-6l-2,6H202.1z"/>
	<path class="st3" d="M219.3,0.6c0,0,4.4-0.2,4.4,3.5c0,0,0.2,2.8-3.2,3.4c3.5,1.3,3.2,4.7,3.2,4.7s0,0.2,0,0.6
		c0,1.2,0.2,4.1,2.3,4.1l0.6,0.6c-0.6,0.2-1.2,0.3-1.7,0.3h-0.2c-4.2,0-3.9-5.6-3.9-5.6s0.3-4.6-3.6-4.6h-0.6v8.7
		c0,0.1,0.2,0.6,1.6,0.6l0.6,0.6h-7.9l0.6-0.6c1.4,0,1.6-0.4,1.6-0.6V1.8c0-0.1-0.2-0.6-1.6-0.6l-0.6-0.6H219.3z M216.6,7h2.7
		c0,0,1.6,0.2,1.6-2.9c0,0,0.1-2.9-1.6-2.9h-2.7V7z"/>
	<path class="st3" d="M236.7,0.6c5.7,0,5.2,4.2,5.2,4.2s0,4.2-5.2,4.2H234v7.3c0,0.1,0.2,0.6,1.6,0.6l0.6,0.6h-7.9l0.6-0.6
		c1.4,0,1.6-0.4,1.6-0.6V1.8c0-0.1-0.2-0.6-1.6-0.6l-0.6-0.6H236.7z M234,8.3h2.7c2.4,0,2.4-3.5,2.4-3.5s0-3.5-2.4-3.5H234V8.3z"/>
	<path class="st3" d="M258.6,9c0,0,0.6,8.7-7.5,8.7S243.6,9,243.6,9s-0.6-8.7,7.5-8.7C259.2,0.3,258.6,9,258.6,9z M250.4,1
		c-1.2,0.2-3.4,1.1-3.4,5.2v5.1c0.1,5.1,2.8,5.8,3.8,5.8h0.3h0.3c1-0.1,3.7-0.8,3.8-5.8V6.2c0-4.1-2.2-5-3.4-5.2c-0.5,0-0.7,0-0.7,0
		S250.8,0.9,250.4,1z"/>
	<path class="st3" d="M276.2,9c0,0,0.6,8.7-7.5,8.7S261.3,9,261.3,9s-0.6-8.7,7.5-8.7C276.8,0.3,276.2,9,276.2,9z M268,1
		c-1.2,0.2-3.4,1.1-3.4,5.2v5.1c0.1,5.1,2.8,5.8,3.8,5.8h0.3h0.3c1-0.1,3.7-0.8,3.8-5.8V6.2c0-4.1-2.2-5-3.4-5.2c-0.5,0-0.7,0-0.7,0
		S268.4,0.9,268,1z"/>
	<path class="st3" d="M293.2,1.2c-1.4,0-1.6,0.4-1.6,0.6v15.6h-1.3l-1.8-2.9l-8.3-13.2v14.9c0,0.1,0.2,0.6,1.6,0.6l0.6,0.6h-5
		l0.6-0.6c1.4,0,1.6-0.4,1.6-0.6V1.8c0-0.1-0.2-0.6-1.6-0.6l-0.6-0.6h6.5l0,0l7,11.1v-10c0-0.1-0.2-0.6-1.6-0.6l-0.6-0.6h5
		L293.2,1.2z"/>
</g>
<g>
	<path class="st3" d="M170.8,50.4c-2.1,0-2.3,0.6-2.4,0.9V73c0,0.2,0.3,0.8,2.4,0.8l0.9,0.9h-10.8l0.9-0.9c2.1,0,2.3-0.6,2.4-0.8
		v-13h-8.6v13c0,0-0.2,0.9,2.4,0.9l0.9,0.9h-11.9l0.9-0.9c2,0,2.3-0.6,2.4-0.8V51.3c-0.1-0.2-0.4-0.8-2.4-0.8l-0.9-0.9h11.9
		l-0.9,0.9c-2.6,0-2.4,0.9-2.4,0.9V59h8.6v-7.7c0-0.2-0.3-0.8-2.4-0.8l-0.9-0.9h10.8L170.8,50.4z"/>
	<path class="st3" d="M186.3,49.6l0.4,1.2v0l0.8,2.4l0,0l6.4,19.6c0,0,0.3,0.9,1.8,0.9l0.9,0.9h-11.3l0.9-0.9c2.3,0,2.1-0.8,2.1-0.9
		l-2.4-7.2h-6.6l-2.5,7.2c0,0.1-0.3,0.9,2.1,0.9l0.9,0.9h-6.7l0.9-0.9c1.5,0,1.8-0.9,1.8-0.9l5.9-17.1l0.5-1.4l0.7-2.2l0.4-1
		l2.6-2.7l0.1,0.5L186.3,49.6z M185.6,64.8l-2.9-8.9l-3.1,8.9H185.6z"/>
	<path class="st3" d="M211.4,49.5c0,0,6.7-0.3,6.7,5.2c0,0,0.3,4.2-4.8,5.1c5.3,2,4.8,7.1,4.8,7.1s0,0.3,0,0.8
		c0,1.8,0.4,6.1,3.4,6.1l0.9,0.9c-0.9,0.3-1.8,0.4-2.5,0.5h-0.3c-6.4,0-5.8-8.4-5.8-8.4s0.4-6.9-5.5-6.9h-0.9v13
		c0,0.2,0.3,0.8,2.4,0.8l0.9,0.9h-11.9l0.9-0.9c2.1,0,2.4-0.6,2.4-0.8V51.3c0-0.2-0.3-0.9-2.4-0.9l-0.9-0.9H211.4z M207.4,59h4
		c0,0,2.4,0.3,2.4-4.3c0,0,0.1-4.3-2.4-4.3h-4V59z"/>
	<path class="st3" d="M237.5,49.5c8.5,0,7.8,6.2,7.8,6.2s0,6.2-7.8,6.2h-4v11c0,0.2,0.3,0.8,2.4,0.8l0.9,0.9h-11.9l0.9-0.9
		c2.1,0,2.3-0.6,2.4-0.8V51.3c0-0.2-0.3-0.8-2.4-0.8l-0.9-0.9H237.5z M233.5,61h4c3.6,0,3.6-5.3,3.6-5.3s0.1-5.3-3.6-5.3h-4V61z"/>
	<path class="st3" d="M270.4,62.1c0,0,0.8,13.1-11.2,13.1s-11.2-13.1-11.2-13.1s-0.9-13.1,11.2-13.1
		C271.3,49.1,270.4,62.1,270.4,62.1z M258,50.1c-1.8,0.3-5.1,1.7-5.1,7.8v7.6c0.1,7.6,4.2,8.6,5.7,8.7h0.5h0.5
		c1.5-0.1,5.5-1.2,5.7-8.7v-7.6c0-6.1-3.3-7.5-5.1-7.8c-0.7-0.1-1.1-0.1-1.1-0.1S258.7,50,258,50.1z"/>
	<path class="st3" d="M296.8,62.1c0,0,0.8,13.1-11.2,13.1c-12.1,0-11.2-13.1-11.2-13.1s-0.9-13.1,11.2-13.1
		C297.7,49.1,296.8,62.1,296.8,62.1z M284.5,50.1c-1.8,0.3-5.1,1.7-5.1,7.8v7.6c0.1,7.6,4.2,8.6,5.7,8.7h0.5h0.5
		c1.5-0.1,5.5-1.2,5.7-8.7v-7.6c0-6.1-3.3-7.5-5.1-7.8c-0.7-0.1-1.1-0.1-1.1-0.1S285.2,50,284.5,50.1z"/>
	<path class="st3" d="M322.2,50.4c-2.1,0-2.4,0.6-2.4,0.8v23.5h-1.9l-2.7-4.3l-12.4-19.8V73c0,0.2,0.3,0.8,2.3,0.8l0.9,0.9h-7.5
		l0.9-0.9c2.1,0,2.3-0.6,2.4-0.8V51.3c0-0.2-0.3-0.8-2.4-0.8l-0.9-0.9h9.8l0,0l10.5,16.7v-15c0-0.2-0.3-0.8-2.4-0.8l-0.9-0.9h7.5
		L322.2,50.4z"/>
</g>
<g>
	<path class="st3" d="M149.4,108.5c-2.8,0-3.1,0.9-3.2,1.2v28.9c0,0.3,0.4,1.1,3.2,1.1l1.2,1.2h-14.4l1.2-1.2c2.8,0,3.1-0.8,3.2-1.1
		v-17.4H129v17.3c0,0-0.2,1.2,3.2,1.2l1.2,1.2h-15.9l1.2-1.2c2.7,0,3.1-0.8,3.2-1.1v-29c-0.1-0.3-0.5-1.1-3.2-1.1l-1.2-1.2h15.9
		l-1.2,1.2c-3.4,0-3.2,1.2-3.2,1.2V120h11.5v-10.3c0-0.3-0.3-1.1-3.2-1.1l-1.2-1.2h14.4L149.4,108.5z"/>
	<path class="st3" d="M170,107.3l0.5,1.6v0l1.1,3.3l0,0l8.6,26.2c0,0,0.4,1.2,2.4,1.2l1.2,1.2h-15l1.2-1.2c3.1,0,2.8-1.1,2.8-1.2
		l-3.2-9.6h-8.8l-3.3,9.6c0,0.1-0.3,1.2,2.7,1.2l1.2,1.2h-8.9l1.2-1.2c2,0,2.4-1.2,2.4-1.2l7.8-22.8l0.7-1.9l1-2.9l0.5-1.3l3.5-3.6
		l0.2,0.7L170,107.3z M169.2,127.6l-3.9-11.9l-4.1,11.9H169.2z"/>
	<path class="st3" d="M203.5,107.3c0,0,8.9-0.3,8.9,7c0,0,0.4,5.7-6.4,6.8c7,2.6,6.4,9.4,6.4,9.4s0,0.4,0,1.1c0,2.4,0.5,8.2,4.6,8.2
		l1.2,1.2c-1.2,0.4-2.4,0.6-3.3,0.6h-0.4c-8.5,0-7.7-11.1-7.7-11.1s0.5-9.2-7.3-9.2h-1.2v17.4c0,0.3,0.4,1.1,3.2,1.1l1.2,1.2h-15.9
		l1.2-1.2c2.8,0,3.2-0.8,3.2-1.1v-28.9c0-0.3-0.3-1.2-3.2-1.2l-1.2-1.2H203.5z M198.2,120h5.3c0,0,3.2,0.3,3.2-5.7
		c0,0,0.1-5.7-3.2-5.7h-5.3V120z"/>
	<path class="st3" d="M238.4,107.3c11.4,0,10.5,8.3,10.5,8.3s0,8.3-10.5,8.3H233v14.6c0,0.3,0.4,1.1,3.2,1.1l1.2,1.2h-15.9l1.2-1.2
		c2.8,0,3.1-0.8,3.2-1.1v-28.9c0-0.3-0.3-1.1-3.2-1.1l-1.2-1.2H238.4z M233,122.7h5.3c4.8,0,4.8-7.1,4.8-7.1s0.1-7.1-4.8-7.1H233
		V122.7z"/>
	<path class="st3" d="M282.2,124.1c0,0,1.1,17.4-15,17.4s-15-17.4-15-17.4s-1.2-17.4,15-17.4C283.3,106.7,282.2,124.1,282.2,124.1z
		 M265.7,108c-2.4,0.4-6.8,2.3-6.8,10.4v10.2c0.2,10.1,5.6,11.5,7.6,11.7h0.7h0.7c2-0.1,7.4-1.5,7.6-11.7v-10.2
		c0-8.1-4.4-9.9-6.8-10.4c-0.9-0.1-1.5-0.1-1.5-0.1S266.6,107.9,265.7,108z"/>
	<path class="st3" d="M317.5,124.1c0,0,1.1,17.4-15,17.4s-15-17.4-15-17.4s-1.2-17.4,15-17.4C318.6,106.7,317.5,124.1,317.5,124.1z
		 M301,108c-2.4,0.4-6.8,2.3-6.8,10.4v10.2c0.2,10.1,5.6,11.5,7.6,11.7h0.7h0.7c2-0.1,7.4-1.5,7.6-11.7v-10.2
		c0-8.1-4.4-9.9-6.8-10.4c-0.9-0.1-1.5-0.1-1.5-0.1S301.9,107.9,301,108z"/>
	<path class="st3" d="M351.3,108.5c-2.8,0-3.2,0.8-3.2,1.1v31.3h-2.6l-3.6-5.7l-16.5-26.4v29.7c0,0.3,0.4,1.1,3.1,1.1l1.2,1.2h-10
		l1.2-1.2c2.8,0,3.1-0.8,3.2-1.1v-28.9c0-0.3-0.4-1.1-3.2-1.1l-1.2-1.2h13l0,0l14,22.3v-20c0-0.3-0.4-1.1-3.2-1.1l-1.2-1.2h10
		L351.3,108.5z"/>
</g>
<g>
	<path class="st3" d="M128,175.5c-3.5,0-3.9,1.1-4,1.4V213c0.1,0.4,0.5,1.4,4,1.4l1.5,1.6h-18.1l1.5-1.6c3.5,0,3.9-1,4-1.4v-21.7
		h-14.4v21.6c0,0-0.3,1.5,4,1.5l1.5,1.6H88.1l1.6-1.6c3.4,0,3.8-1,4-1.3v-36.2c-0.1-0.4-0.6-1.4-4-1.4l-1.6-1.5H108l-1.5,1.5
		c-4.3,0-4,1.6-4,1.6v12.8h14.4v-12.9c-0.1-0.4-0.4-1.4-4-1.4l-1.5-1.6h18.1L128,175.5z"/>
	<path class="st3" d="M153.8,174l0.7,2v0.1l1.3,4.1l0.1,0.1l10.7,32.7c0,0,0.5,1.6,2.9,1.6l1.5,1.5h-18.8l1.5-1.5
		c3.8,0,3.5-1.4,3.5-1.6l-4-12.1h-11l-4.1,12.1c-0.1,0.2-0.4,1.6,3.4,1.6l1.6,1.5h-11.1l1.6-1.5c2.5,0,2.9-1.6,2.9-1.6l9.8-28.4
		l0.8-2.4l1.2-3.6l0.6-1.6l4.4-4.4l0.2,0.8L153.8,174z M152.7,199.3l-4.9-14.9l-5.1,14.9H152.7z"/>
	<path class="st3" d="M195.6,174c0,0,11.1-0.4,11.1,8.7c0,0,0.5,7.1-8,8.5c8.8,3.3,8,11.8,8,11.8s-0.1,0.5-0.1,1.4
		c0,3.1,0.6,10.2,5.7,10.2l1.6,1.6c-1.6,0.5-2.9,0.7-4.1,0.8h-0.5c-10.6,0-9.7-13.9-9.7-13.9s0.7-11.5-9.1-11.5H189v21.7
		c0,0.4,0.5,1.4,4,1.4l1.5,1.6h-19.9l1.5-1.6c3.5,0,4-1,4-1.4V177c0-0.4-0.4-1.4-4-1.4l-1.5-1.6H195.6z M189,189.8h6.7
		c0,0,4,0.4,4-7.1c0,0,0.2-7.1-4-7.1H189V189.8z"/>
	<path class="st3" d="M239.2,174c14.2,0,13.1,10.4,13.1,10.4s0,10.4-13.1,10.4h-6.7V213c0.1,0.4,0.5,1.4,4,1.4l1.5,1.6h-19.9
		l1.6-1.6c3.5,0,3.9-1,4-1.4v-36.1c-0.1-0.4-0.4-1.4-4-1.4l-1.6-1.6H239.2z M232.5,193.2h6.7c6.1,0,5.9-8.8,5.9-8.8s0.1-8.8-5.9-8.8
		h-6.7V193.2z"/>
	<path class="st3" d="M294,195c0,0,1.4,21.8-18.7,21.8c-20.1,0-18.7-21.8-18.7-21.8s-1.5-21.8,18.7-21.8
		C295.4,173.2,294,195,294,195z M273.4,174.9c-2.9,0.5-8.5,2.8-8.5,13v12.7c0.2,12.7,7,14.4,9.5,14.6h0.8h0.8
		c2.5-0.2,9.2-1.9,9.5-14.6v-12.7c0-10.1-5.5-12.4-8.5-13c-1.1-0.1-1.9-0.1-1.9-0.1S274.5,174.7,273.4,174.9z"/>
	<path class="st3" d="M338.1,195c0,0,1.4,21.8-18.7,21.8c-20.1,0-18.7-21.8-18.7-21.8s-1.5-21.8,18.7-21.8
		C339.5,173.2,338.1,195,338.1,195z M317.5,174.9c-2.9,0.5-8.5,2.8-8.5,13v12.7c0.2,12.7,7,14.4,9.5,14.6h0.8h0.8
		c2.5-0.2,9.2-1.9,9.5-14.6v-12.7c0-10.1-5.5-12.4-8.5-13c-1.1-0.1-1.9-0.1-1.9-0.1S318.6,174.7,317.5,174.9z"/>
	<path class="st3" d="M380.4,175.5c-3.5,0-4,1-4,1.4V216h-3.2l-4.4-7.1l-20.6-32.9V213c0,0.4,0.5,1.4,3.9,1.4l1.6,1.6h-12.5l1.5-1.6
		c3.5,0,3.9-1,4-1.4v-36.2c-0.1-0.4-0.5-1.4-4-1.4l-1.5-1.5h16.3l0.1,0.1l17.5,27.8v-25c-0.1-0.4-0.5-1.4-4-1.4l-1.5-1.5h12.5
		L380.4,175.5z"/>
</g>
<g>
	<path class="st3" d="M106.6,251.3c-4.2,0-4.7,1.3-4.8,1.7v43.3c0.1,0.4,0.6,1.7,4.8,1.7l1.8,1.9H86.8l1.8-1.9
		c4.2,0,4.7-1.2,4.8-1.7v-26.1H76v25.9c0,0-0.4,1.8,4.8,1.8l1.8,1.9H58.8l1.9-1.9c4,0,4.6-1.2,4.8-1.6V253c-0.1-0.4-0.7-1.7-4.8-1.7
		l-1.9-1.8h23.8l-1.8,1.8c-5.1,0-4.8,1.9-4.8,1.9v15.3h17.3V253c-0.1-0.4-0.5-1.7-4.8-1.7l-1.8-1.9h21.7L106.6,251.3z"/>
	<path class="st3" d="M137.5,249.6l0.8,2.4v0.1l1.6,4.9l0.1,0.1l12.9,39.2c0,0,0.6,1.9,3.5,1.9l1.8,1.8h-22.5l1.8-1.8
		c4.6,0,4.2-1.7,4.2-1.9l-4.8-14.5h-13.2l-5,14.5c-0.1,0.2-0.5,1.9,4.1,1.9l1.9,1.8h-13.3l1.9-1.8c3,0,3.5-1.9,3.5-1.9l11.7-34.1
		l1-2.9l1.4-4.3l0.7-1.9l5.3-5.3l0.3,1L137.5,249.6z M136.2,280l-5.8-17.9l-6.1,17.9H136.2z"/>
	<path class="st3" d="M187.8,249.5c0,0,13.3-0.5,13.3,10.4c0,0,0.6,8.5-9.6,10.2c10.5,4,9.6,14.1,9.6,14.1s-0.1,0.6-0.1,1.7
		c0,3.7,0.7,12.2,6.8,12.2l1.9,1.9c-1.9,0.6-3.5,0.9-5,0.9h-0.6c-12.7,0-11.6-16.7-11.6-16.7s0.8-13.8-10.9-13.8h-1.8v26.1
		c0,0.4,0.6,1.7,4.8,1.7l1.8,1.9h-23.8l1.8-1.9c4.2,0,4.8-1.2,4.8-1.7v-43.3c0-0.4-0.5-1.7-4.8-1.7l-1.8-1.9H187.8z M179.8,268.5h8
		c0,0,4.8,0.5,4.8-8.6c0,0,0.2-8.6-4.8-8.6h-8V268.5z"/>
	<path class="st3" d="M240,249.5c17.1,0,15.7,12.5,15.7,12.5s0,12.5-15.7,12.5h-8v22c0.1,0.4,0.6,1.7,4.8,1.7l1.8,1.9h-23.8l1.9-1.9
		c4.2,0,4.7-1.2,4.8-1.7V253c-0.1-0.4-0.5-1.7-4.8-1.7l-1.9-1.9H240z M232.1,272.5h8c7.3,0,7.1-10.6,7.1-10.6s0.1-10.6-7.1-10.6h-8
		V272.5z"/>
	<path class="st3" d="M305.8,274.7c0,0,1.7,26.1-22.5,26.1s-22.5-26.1-22.5-26.1s-1.8-26.1,22.5-26.1
		C307.5,248.6,305.8,274.7,305.8,274.7z M281.1,250.6c-3.5,0.6-10.2,3.4-10.2,15.6v15.3c0.3,15.2,8.4,17.3,11.4,17.5h1h1
		c3-0.2,11.1-2.3,11.4-17.5v-15.3c0-12.2-6.6-14.9-10.2-15.6c-1.4-0.1-2.2-0.1-2.2-0.1S282.4,250.4,281.1,250.6z"/>
	<path class="st3" d="M358.7,274.7c0,0,1.7,26.1-22.5,26.1s-22.5-26.1-22.5-26.1s-1.8-26.1,22.5-26.1
		C360.4,248.6,358.7,274.7,358.7,274.7z M334,250.6c-3.5,0.6-10.2,3.4-10.2,15.6v15.3c0.3,15.2,8.4,17.3,11.4,17.5h1h1
		c3-0.2,11.1-2.3,11.4-17.5v-15.3c0-12.2-6.6-14.9-10.2-15.6c-1.4-0.1-2.2-0.1-2.2-0.1S335.3,250.4,334,250.6z"/>
	<path class="st3" d="M409.5,251.3c-4.2,0-4.8,1.2-4.8,1.7v46.9h-3.9l-5.3-8.6l-24.8-39.5v44.6c0,0.4,0.6,1.7,4.7,1.7l1.9,1.9h-15
		l1.8-1.9c4.2,0,4.7-1.2,4.8-1.7V253c-0.1-0.4-0.6-1.7-4.8-1.7l-1.8-1.8h19.5l0.1,0.1l21,33.4v-30c-0.1-0.4-0.6-1.7-4.8-1.7
		l-1.8-1.8h15L409.5,251.3z"/>
</g>
<g>
	<path class="st3" d="M85.2,336c-4.9,0-5.5,1.5-5.5,2v50.6c0.1,0.5,0.7,1.9,5.5,1.9l2.1,2.2H62.1l2.1-2.2c5,0,5.5-1.4,5.5-1.9v-30.4
		H49.5v30.2c0,0-0.4,2.1,5.5,2.1l2.1,2.2H29.4l2.2-2.2c4.7,0,5.4-1.3,5.5-1.8V338c-0.2-0.5-0.8-1.9-5.5-1.9l-2.2-2.1h27.8l-2.1,2.1
		c-6,0-5.5,2.2-5.5,2.2v17.9h20.2V338c-0.1-0.5-0.6-1.9-5.5-1.9l-2.1-2.2h25.3L85.2,336z"/>
	<path class="st3" d="M121.3,334l0.9,2.8v0.1l1.8,5.7l0.1,0.1l15,45.8c0,0,0.7,2.2,4.1,2.2l2.1,2.1h-26.3l2.1-2.1
		c5.4,0,5-1.9,4.9-2.2l-5.5-16.9h-15.5l-5.8,16.9c-0.1,0.3-0.6,2.2,4.8,2.2l2.2,2.1H90.7l2.2-2.1c3.4,0,4.1-2.2,4.1-2.2l13.7-39.8
		l1.2-3.4l1.7-5l0.8-2.3l6.1-6.2l0.3,1.2L121.3,334z M119.8,369.5l-6.8-20.8l-7.1,20.8H119.8z"/>
	<path class="st3" d="M179.9,333.9c0,0,15.5-0.6,15.5,12.2c0,0,0.8,9.9-11.2,11.8c12.3,4.6,11.2,16.5,11.2,16.5s-0.1,0.8-0.1,1.9
		c0,4.3,0.8,14.3,8,14.3l2.2,2.2c-2.2,0.7-4.1,1-5.8,1.1H199c-14.9,0-13.5-19.5-13.5-19.5s0.9-16.1-12.8-16.1h-2.1v30.4
		c0,0.5,0.7,1.9,5.5,1.9l2.1,2.2h-27.8l2.1-2.2c5,0,5.5-1.4,5.5-1.9v-50.6c0-0.5-0.6-2-5.5-2l-2.1-2.2H179.9z M170.6,356.1h9.3
		c0,0,5.5,0.6,5.5-10c0,0,0.3-10-5.5-10h-9.3V356.1z"/>
	<path class="st3" d="M240.9,333.9c19.9,0,18.3,14.5,18.3,14.5s0,14.5-18.3,14.5h-9.3v25.6c0.1,0.5,0.7,1.9,5.5,1.9l2.1,2.2h-27.8
		l2.2-2.2c4.9,0,5.5-1.4,5.5-1.9V338c-0.1-0.5-0.6-1.9-5.5-1.9l-2.2-2.2H240.9z M231.6,360.8h9.3c8.5,0,8.3-12.3,8.3-12.3
		s0.2-12.3-8.3-12.3h-9.3V360.8z"/>
	<path class="st3" d="M317.6,363.3c0,0,1.9,30.5-26.2,30.5s-26.2-30.5-26.2-30.5s-2.1-30.5,26.2-30.5
		C319.6,332.8,317.6,363.3,317.6,363.3z M288.8,335.2c-4.1,0.8-11.8,3.9-11.8,18.1v17.8c0.3,17.7,9.8,20.2,13.3,20.4h1.2h1.2
		c3.4-0.3,12.9-2.7,13.3-20.4v-17.8c0-14.2-7.7-17.4-11.8-18.1c-1.6-0.2-2.6-0.2-2.6-0.2S290.3,335,288.8,335.2z"/>
	<path class="st3" d="M379.3,363.3c0,0,1.9,30.5-26.2,30.5c-28.1,0-26.2-30.5-26.2-30.5s-2.1-30.5,26.2-30.5
		C381.3,332.8,379.3,363.3,379.3,363.3z M350.5,335.2c-4.1,0.8-11.8,3.9-11.8,18.1v17.8c0.3,17.7,9.8,20.2,13.3,20.4h1.2h1.2
		c3.4-0.3,12.9-2.7,13.3-20.4v-17.8c0-14.2-7.7-17.4-11.8-18.1c-1.6-0.2-2.6-0.2-2.6-0.2S352,335,350.5,335.2z"/>
	<path class="st3" d="M438.5,336c-4.9,0-5.5,1.4-5.5,1.9v54.8h-4.5l-6.2-10l-28.9-46.1v52c0,0.5,0.7,1.9,5.5,1.9l2.2,2.2h-17.5
		l2.1-2.2c4.9,0,5.5-1.4,5.5-1.9V338c-0.1-0.5-0.7-1.9-5.5-1.9l-2.1-2.1h22.8l0.1,0.1l24.4,39v-35c-0.1-0.5-0.7-1.9-5.5-1.9
		l-2.1-2.1h17.5L438.5,336z"/>
</g>
<g>
	<path class="st3" d="M63.8,429.6c-5.6,0-6.2,1.7-6.3,2.3v57.8c0.1,0.6,0.8,2.2,6.3,2.2l2.4,2.5H37.3l2.4-2.5c5.7,0,6.2-1.6,6.3-2.2
		V455H23v34.6c0,0-0.5,2.4,6.3,2.4l2.4,2.5H0l2.5-2.5c5.4,0,6.1-1.5,6.3-2.1v-58c-0.2-0.6-1-2.2-6.3-2.2L0,427.2h31.8l-2.4,2.4
		c-6.8,0-6.3,2.5-6.3,2.5v20.4h23v-20.6c-0.1-0.6-0.7-2.2-6.3-2.2l-2.4-2.5h28.9L63.8,429.6z"/>
	<path class="st3" d="M105,427.3l1.1,3.2v0.1l2.1,6.5l0.1,0.1l17.2,52.3c0,0,0.8,2.5,4.7,2.5l2.4,2.4h-30l2.4-2.4
		c6.1,0,5.7-2.2,5.6-2.5l-6.3-19.3H86.5l-6.6,19.3c-0.1,0.3-0.7,2.5,5.5,2.5l2.5,2.4H70.1l2.5-2.4c3.9,0,4.7-2.5,4.7-2.5L92.9,444
		l1.3-3.8l1.9-5.8l1-2.6l7-7.1l0.4,1.3L105,427.3z M103.3,467.8L95.5,444l-8.2,23.8H103.3z"/>
	<path class="st3" d="M172,427.2c0,0,17.8-0.7,17.8,13.9c0,0,0.9,11.3-12.8,13.5c14,5.3,12.8,18.8,12.8,18.8s-0.1,0.9-0.1,2.2
		c0,4.9,1,16.3,9.1,16.3l2.5,2.5c-2.5,0.8-4.7,1.2-6.6,1.2h-0.9c-17,0-15.5-22.3-15.5-22.3s1.1-18.4-14.6-18.4h-2.4v34.8
		c0,0.6,0.8,2.2,6.3,2.2l2.4,2.5h-31.8l2.4-2.5c5.7,0,6.3-1.6,6.3-2.2V432c0-0.6-0.7-2.3-6.3-2.3l-2.4-2.5H172z M161.4,452.6H172
		c0,0,6.3,0.7,6.3-11.4c0,0,0.3-11.4-6.3-11.4h-10.7V452.6z"/>
	<path class="st3" d="M241.7,427.2c22.8,0,20.9,16.6,20.9,16.6s0,16.6-20.9,16.6h-10.7v29.3c0.1,0.6,0.8,2.2,6.3,2.2l2.4,2.5H208
		l2.5-2.5c5.6,0,6.2-1.6,6.3-2.2v-57.8c-0.1-0.6-0.7-2.2-6.3-2.2l-2.5-2.5H241.7z M231.1,457.9h10.7c9.7,0,9.5-14.1,9.5-14.1
		s0.2-14.1-9.5-14.1h-10.7V457.9z"/>
	<path class="st3" d="M329.4,460.8c0,0,2.2,34.8-29.9,34.8c-32.2,0-30-34.8-30-34.8s-2.4-34.8,30-34.8
		C331.7,426,329.4,460.8,329.4,460.8z M296.4,428.7c-4.7,0.9-13.5,4.5-13.5,20.7v20.4c0.4,20.3,11.2,23,15.2,23.3h1.3h1.3
		c3.9-0.3,14.8-3.1,15.2-23.3v-20.4c0-16.2-8.8-19.9-13.5-20.7c-1.8-0.2-3-0.2-3-0.2S298.2,428.5,296.4,428.7z"/>
	<path class="st3" d="M399.9,460.8c0,0,2.2,34.8-29.9,34.8c-32.2,0-30-34.8-30-34.8s-2.4-34.8,30-34.8
		C402.2,426,399.9,460.8,399.9,460.8z M367,428.7c-4.7,0.9-13.5,4.5-13.5,20.7v20.4c0.4,20.3,11.2,23,15.2,23.3h1.3h1.3
		c3.9-0.3,14.8-3.1,15.2-23.3v-20.4c0-16.2-8.8-19.9-13.5-20.7c-1.8-0.2-3-0.2-3-0.2S368.7,428.5,367,428.7z"/>
	<path class="st3" d="M467.6,429.6c-5.6,0-6.3,1.6-6.3,2.2v62.6h-5.2L449,483l-33-52.7v59.4c0,0.6,0.8,2.2,6.2,2.2l2.5,2.5h-20
		l2.4-2.5c5.6,0,6.2-1.6,6.3-2.2v-57.9c-0.1-0.6-0.8-2.2-6.3-2.2l-2.4-2.4h26l0.1,0.1l27.9,44.5v-40c-0.1-0.6-0.8-2.2-6.3-2.2
		l-2.4-2.4h20L467.6,429.6z"/>
</g>
<text transform="matrix(1 0 0 1 -588.0491 292.1085)"><tspan x="0" y="0" class="st3" style="font-family:'Leviathan-Regular'; font-size:24px;">H</tspan><tspan x="18" y="0" class="st3" style="font-family:'Leviathan-Regular'; font-size:24px;">AR</tspan><tspan x="52" y="0" class="st3" style="font-family:'Leviathan-Regular'; font-size:24px;">P</tspan><tspan x="67.3" y="0" class="st3" style="font-family:'Leviathan-Regular'; font-size:24px;">O</tspan><tspan x="85" y="0" class="st3" style="font-family:'Leviathan-Regular'; font-size:24px;">O</tspan><tspan x="101.2" y="0" class="st3" style="font-family:'Leviathan-Regular'; font-size:24px;">N</tspan></text>
<text transform="matrix(1 0 0 1 -580.5853 265.1083)"><tspan x="0" y="0" class="st3" style="font-family:'Leviathan-Regular'; font-size:21px;">H</tspan><tspan x="15.8" y="0" class="st3" style="font-family:'Leviathan-Regular'; font-size:21px;">AR</tspan><tspan x="45.5" y="0" class="st3" style="font-family:'Leviathan-Regular'; font-size:21px;">P</tspan><tspan x="58.9" y="0" class="st3" style="font-family:'Leviathan-Regular'; font-size:21px;">O</tspan><tspan x="74.4" y="0" class="st3" style="font-family:'Leviathan-Regular'; font-size:21px;">O</tspan><tspan x="88.5" y="0" class="st3" style="font-family:'Leviathan-Regular'; font-size:21px;">N</tspan></text>
<text transform="matrix(1 0 0 1 -617.9051 331.1085)"><tspan x="0" y="0" class="st3" style="font-family:'Leviathan-Regular'; font-size:36px;">H</tspan><tspan x="27" y="0" class="st3" style="font-family:'Leviathan-Regular'; font-size:36px;">AR</tspan><tspan x="78" y="0" class="st3" style="font-family:'Leviathan-Regular'; font-size:36px;">P</tspan><tspan x="101" y="0" class="st3" style="font-family:'Leviathan-Regular'; font-size:36px; letter-spacing:1;">O</tspan><tspan x="127.5" y="0" class="st3" style="font-family:'Leviathan-Regular'; font-size:36px; letter-spacing:-1;">O</tspan><tspan x="151.8" y="0" class="st3" style="font-family:'Leviathan-Regular'; font-size:36px;">N</tspan></text>
<text transform="matrix(1 0 0 1 -647.7608 379.1085)"><tspan x="0" y="0" class="st3" style="font-family:'Leviathan-Regular'; font-size:48px;">H</tspan><tspan x="36" y="0" class="st3" style="font-family:'Leviathan-Regular'; font-size:48px;">AR</tspan><tspan x="104" y="0" class="st3" style="font-family:'Leviathan-Regular'; font-size:48px;">P</tspan><tspan x="134.7" y="0" class="st3" style="font-family:'Leviathan-Regular'; font-size:48px; letter-spacing:1;">O</tspan><tspan x="170" y="0" class="st3" style="font-family:'Leviathan-Regular'; font-size:48px; letter-spacing:-1;">O</tspan><tspan x="202.4" y="0" class="st3" style="font-family:'Leviathan-Regular'; font-size:48px;">N</tspan></text>
<text transform="matrix(1 0 0 1 -677.6163 445.1085)"><tspan x="0" y="0" class="st3" style="font-family:'Leviathan-Regular'; font-size:60px; letter-spacing:-1;">H</tspan><tspan x="45" y="0" class="st3" style="font-family:'Leviathan-Regular'; font-size:60px;">AR</tspan><tspan x="130" y="0" class="st3" style="font-family:'Leviathan-Regular'; font-size:60px;">P</tspan><tspan x="168.4" y="0" class="st3" style="font-family:'Leviathan-Regular'; font-size:60px; letter-spacing:1;">O</tspan><tspan x="212.5" y="0" class="st3" style="font-family:'Leviathan-Regular'; font-size:60px; letter-spacing:-1;">O</tspan><tspan x="253" y="0" class="st3" style="font-family:'Leviathan-Regular'; font-size:60px;">N</tspan></text>
<text transform="matrix(1 0 0 1 -707.4717 525.1085)"><tspan x="0" y="0" class="st3" style="font-family:'Leviathan-Regular'; font-size:72px; letter-spacing:-1;">H</tspan><tspan x="54" y="0" class="st3" style="font-family:'Leviathan-Regular'; font-size:72px;">AR</tspan><tspan x="156" y="0" class="st3" style="font-family:'Leviathan-Regular'; font-size:72px;">P</tspan><tspan x="202" y="0" class="st3" style="font-family:'Leviathan-Regular'; font-size:72px; letter-spacing:2;">O</tspan><tspan x="254.9" y="0" class="st3" style="font-family:'Leviathan-Regular'; font-size:72px; letter-spacing:-2;">O</tspan><tspan x="303.5" y="0" class="st3" style="font-family:'Leviathan-Regular'; font-size:72px;">N</tspan></text>
<text transform="matrix(1 0 0 1 -737.3278 626.1085)"><tspan x="0" y="0" class="st3" style="font-family:'Leviathan-Regular'; font-size:84px; letter-spacing:-1;">H</tspan><tspan x="63" y="0" class="st3" style="font-family:'Leviathan-Regular'; font-size:84px;">AR</tspan><tspan x="182" y="0" class="st3" style="font-family:'Leviathan-Regular'; font-size:84px;">P</tspan><tspan x="235.7" y="0" class="st3" style="font-family:'Leviathan-Regular'; font-size:84px; letter-spacing:2;">O</tspan><tspan x="297.4" y="0" class="st3" style="font-family:'Leviathan-Regular'; font-size:84px; letter-spacing:-2;">O</tspan><tspan x="354.1" y="0" class="st3" style="font-family:'Leviathan-Regular'; font-size:84px;">N</tspan></text>
<text transform="matrix(1 0 0 1 -767.1833 717.1088)"><tspan x="0" y="0" class="st3" style="font-family:'Leviathan-Regular'; font-size:96px; letter-spacing:-1;">H</tspan><tspan x="72" y="0" class="st3" style="font-family:'Leviathan-Regular'; font-size:96px;">AR</tspan><tspan x="208" y="0" class="st3" style="font-family:'Leviathan-Regular'; font-size:96px;">P</tspan><tspan x="269.4" y="0" class="st3" style="font-family:'Leviathan-Regular'; font-size:96px; letter-spacing:2;">O</tspan><tspan x="339.9" y="0" class="st3" style="font-family:'Leviathan-Regular'; font-size:96px; letter-spacing:-2;">O</tspan><tspan x="404.7" y="0" class="st3" style="font-family:'Leviathan-Regular'; font-size:96px;">N</tspan></text>
</svg>
